<?xml version="1.0" encoding="UTF-8" standalone="no"?>
<!-- Created with Inkscape (http://www.inkscape.org/) -->

<svg
   xmlns:dc="http://purl.org/dc/elements/1.1/"
   xmlns:cc="http://creativecommons.org/ns#"
   xmlns:rdf="http://www.w3.org/1999/02/22-rdf-syntax-ns#"
   xmlns:svg="http://www.w3.org/2000/svg"
   xmlns="http://www.w3.org/2000/svg"
   xmlns:sodipodi="http://sodipodi.sourceforge.net/DTD/sodipodi-0.dtd"
   xmlns:inkscape="http://www.inkscape.org/namespaces/inkscape"
   version="1.1"
   id="svg2"
   xml:space="preserve"
   width="666.66669"
   height="666.66669"
   viewBox="0 0 666.66669 666.66669"
   sodipodi:docname="paris.ai.svg"
   inkscape:version="0.92.5 (2060ec1f9f, 2020-04-08)"><metadata
     id="metadata8"><rdf:RDF><cc:Work
         rdf:about=""><dc:format>image/svg+xml</dc:format><dc:type
           rdf:resource="http://purl.org/dc/dcmitype/StillImage" /><dc:title></dc:title></cc:Work></rdf:RDF></metadata><defs
     id="defs6"><clipPath
       clipPathUnits="userSpaceOnUse"
       id="clipPath20"><path
         d="M 0,500 H 500 V 0 H 0 Z"
         id="path18"
         inkscape:connector-curvature="0" /></clipPath><clipPath
       clipPathUnits="userSpaceOnUse"
       id="clipPath28"><path
         d="M 0,106 H 500 V 0 H 0 Z"
         id="path26"
         inkscape:connector-curvature="0" /></clipPath><clipPath
       clipPathUnits="userSpaceOnUse"
       id="clipPath42"><path
         d="M 0,84.5752 H 500 V 0 H 0 Z"
         id="path40"
         inkscape:connector-curvature="0" /></clipPath><clipPath
       clipPathUnits="userSpaceOnUse"
       id="clipPath56"><path
         d="M 0,63.1503 H 500 V 0 H 0 Z"
         id="path54"
         inkscape:connector-curvature="0" /></clipPath><clipPath
       clipPathUnits="userSpaceOnUse"
       id="clipPath70"><path
         d="M 0,41.7255 H 500 V 0 H 0 Z"
         id="path68"
         inkscape:connector-curvature="0" /></clipPath><clipPath
       clipPathUnits="userSpaceOnUse"
       id="clipPath84"><path
         d="M 0,20.3007 H 500 V 0 H 0 Z"
         id="path82"
         inkscape:connector-curvature="0" /></clipPath><clipPath
       clipPathUnits="userSpaceOnUse"
       id="clipPath118"><path
         d="M 0,500 H 500 V 0 H 0 Z"
         id="path116"
         inkscape:connector-curvature="0" /></clipPath><clipPath
       clipPathUnits="userSpaceOnUse"
       id="clipPath126"><path
         d="M 0,400.462 H 500 V 188.165 H 0 Z"
         id="path124"
         inkscape:connector-curvature="0" /></clipPath><clipPath
       clipPathUnits="userSpaceOnUse"
       id="clipPath130"><path
         d="m 0,380.727 c 0,0 126.142,21.557 248.415,7.559 C 386.911,372.43 500,400.462 500,400.462 V 188.165 H 0 Z"
         id="path128"
         inkscape:connector-curvature="0" /></clipPath><clipPath
       clipPathUnits="userSpaceOnUse"
       id="clipPath134"><path
         d="M -32768,32767 H 32767 V -32768 H -32768 Z"
         id="path132"
         inkscape:connector-curvature="0" /></clipPath><linearGradient
       x1="0"
       y1="0"
       x2="1"
       y2="0"
       gradientUnits="userSpaceOnUse"
       gradientTransform="matrix(0,-195.49081,-195.49081,0,250,376.84271)"
       spreadMethod="pad"
       id="linearGradient144"><stop
         style="stop-opacity:0.29999237;stop-color:#ffffff"
         offset="0"
         id="stop136" /><stop
         style="stop-opacity:0;stop-color:#ffffff"
         offset="0.481481"
         id="stop138" /><stop
         style="stop-opacity:0;stop-color:#ffffff"
         offset="0.89582303"
         id="stop140" /><stop
         style="stop-opacity:0.23926146;stop-color:#ffffff"
         offset="1"
         id="stop142" /></linearGradient><mask
       maskUnits="userSpaceOnUse"
       x="0"
       y="0"
       width="1"
       height="1"
       id="mask146"><g
         id="g156"><g
           clip-path="url(#clipPath134)"
           id="g154"><g
             id="g152"><g
               id="g150"><path
                 d="M -32768,32767 H 32767 V -32768 H -32768 Z"
                 style="fill:url(#linearGradient144);stroke:none"
                 id="path148"
                 inkscape:connector-curvature="0" /></g></g></g></g></mask><linearGradient
       x1="0"
       y1="0"
       x2="1"
       y2="0"
       gradientUnits="userSpaceOnUse"
       gradientTransform="matrix(0,-195.49081,-195.49081,0,250,376.84271)"
       spreadMethod="pad"
       id="linearGradient166"><stop
         style="stop-opacity:1;stop-color:#ffaaab"
         offset="0"
         id="stop158" /><stop
         style="stop-opacity:1;stop-color:#ffffff"
         offset="0.481481"
         id="stop160" /><stop
         style="stop-opacity:1;stop-color:#ffffff"
         offset="0.89582303"
         id="stop162" /><stop
         style="stop-opacity:1;stop-color:#ffc5c6"
         offset="1"
         id="stop164" /></linearGradient><clipPath
       clipPathUnits="userSpaceOnUse"
       id="clipPath192"><path
         d="M 142.731,348.277 H 368.255 V 122.753 H 142.731 Z"
         id="path190"
         inkscape:connector-curvature="0" /></clipPath><clipPath
       clipPathUnits="userSpaceOnUse"
       id="clipPath234"><path
         d="M 0,500 H 500 V 0 H 0 Z"
         id="path232"
         inkscape:connector-curvature="0" /></clipPath><clipPath
       clipPathUnits="userSpaceOnUse"
       id="clipPath242"><path
         d="M 90.6357,364.002 H 142.731 V 348.277 H 90.6357 Z"
         id="path240"
         inkscape:connector-curvature="0" /></clipPath><clipPath
       clipPathUnits="userSpaceOnUse"
       id="clipPath258"><path
         d="m 338.109,356.139 h 52.095 v -15.725 h -52.095 z"
         id="path256"
         inkscape:connector-curvature="0" /></clipPath><clipPath
       clipPathUnits="userSpaceOnUse"
       id="clipPath282"><path
         d="M 0,500 H 500 V 0 H 0 Z"
         id="path280"
         inkscape:connector-curvature="0" /></clipPath><clipPath
       clipPathUnits="userSpaceOnUse"
       id="clipPath312"><path
         d="M 52.8767,274.974 H 104.972 V 259.249 H 52.8767 Z"
         id="path310"
         inkscape:connector-curvature="0" /></clipPath><clipPath
       clipPathUnits="userSpaceOnUse"
       id="clipPath328"><path
         d="m 403.423,283.789 h 52.095 v -15.725 h -52.095 z"
         id="path326"
         inkscape:connector-curvature="0" /></clipPath><clipPath
       clipPathUnits="userSpaceOnUse"
       id="clipPath344"><path
         d="m 220.216,363.147 h 52.095 v -15.724 h -52.095 z"
         id="path342"
         inkscape:connector-curvature="0" /></clipPath><clipPath
       clipPathUnits="userSpaceOnUse"
       id="clipPath470"><path
         d="M 0,500 H 500 V 0 H 0 Z"
         id="path468"
         inkscape:connector-curvature="0" /></clipPath></defs><sodipodi:namedview
     pagecolor="#ffffff"
     bordercolor="#666666"
     borderopacity="1"
     objecttolerance="10"
     gridtolerance="10"
     guidetolerance="10"
     inkscape:pageopacity="0"
     inkscape:pageshadow="2"
     inkscape:window-width="1366"
     inkscape:window-height="732"
     id="namedview4"
     showgrid="false"
     inkscape:zoom="0.70799998"
     inkscape:cx="270.2343"
     inkscape:cy="320.61642"
     inkscape:window-x="0"
     inkscape:window-y="0"
     inkscape:window-maximized="1"
     inkscape:current-layer="g464" /><g
     id="g10"
     inkscape:groupmode="layer"
     inkscape:label="258770-P4R1I4-170"
     transform="matrix(1.3333333,0,0,-1.3333333,0,666.66667)"><path
       d="M 0,0 H 500 V 500 H 0 Z"
       style="fill:#ffeded;fill-opacity:1;fill-rule:nonzero;stroke:none"
       id="path12"
       inkscape:connector-curvature="0" /><g
       id="g14"><g
         id="g16"
         clip-path="url(#clipPath20)"><g
           id="g22"><g
             id="g24" /><g
             id="g34"><g
               clip-path="url(#clipPath28)"
               id="g32"
               style="opacity:0.10000598"><path
                 d="M 500,0 H 0 v 106 h 500 z"
                 style="fill:#ffaaab;fill-opacity:1;fill-rule:nonzero;stroke:none"
                 id="path30"
                 inkscape:connector-curvature="0" /></g></g></g><g
           id="g36"><g
             id="g38" /><g
             id="g48"><g
               clip-path="url(#clipPath42)"
               id="g46"
               style="opacity:0.19999701"><path
                 d="M 500,0 H 0 v 84.575 h 500 z"
                 style="fill:#ffaaab;fill-opacity:1;fill-rule:nonzero;stroke:none"
                 id="path44"
                 inkscape:connector-curvature="0" /></g></g></g><g
           id="g50"><g
             id="g52" /><g
             id="g62"><g
               clip-path="url(#clipPath56)"
               id="g60"
               style="opacity:0.19999701"><path
                 d="M 500,0 H 0 v 63.15 h 500 z"
                 style="fill:#ffaaab;fill-opacity:1;fill-rule:nonzero;stroke:none"
                 id="path58"
                 inkscape:connector-curvature="0" /></g></g></g><g
           id="g64"><g
             id="g66" /><g
             id="g76"><g
               clip-path="url(#clipPath70)"
               id="g74"
               style="opacity:0.19999701"><path
                 d="M 500,0 H 0 v 41.726 h 500 z"
                 style="fill:#ff8687;fill-opacity:1;fill-rule:nonzero;stroke:none"
                 id="path72"
                 inkscape:connector-curvature="0" /></g></g></g><g
           id="g78"><g
             id="g80" /><g
             id="g90"><g
               clip-path="url(#clipPath84)"
               id="g88"
               style="opacity:0.19999701"><path
                 d="M 500,0 H 0 v 20.301 h 500 z"
                 style="fill:#ff8687;fill-opacity:1;fill-rule:nonzero;stroke:none"
                 id="path86"
                 inkscape:connector-curvature="0" /></g></g></g></g></g><text
       transform="scale(1,-1)"
       style="font-variant:normal;font-weight:300;font-stretch:normal;font-size:26.03100014px;font-family:'Geometria Light';-inkscape-font-specification:Geometria-Light;writing-mode:lr-tb;fill:#ff8687;fill-opacity:1;fill-rule:nonzero;stroke:none"
       id="text94"
       x="205.8662"
       y="-426.9512"><tspan
         x="205.8662 226.56085 251.13411 275.49915 287.75974"
         y="-426.9512"
         sodipodi:role="line"
         id="tspan92">PARIS</tspan></text>
<g
       id="g96"
       transform="translate(204.9653,458.6665)"><path
         d="M 17.977292,0 79.345277,0"
         style="fill:none;stroke:#ff8687;stroke-width:0.5;stroke-linecap:round;stroke-linejoin:miter;stroke-miterlimit:10;stroke-dasharray:none;stroke-opacity:1"
         id="path98"
         inkscape:connector-curvature="0"
         sodipodi:nodetypes="cc" /></g><g
       id="g100"
       transform="translate(204.9653,412.3042)"><path
         d="M 17.977292,0 79.345277,0"
         style="fill:none;stroke:#ff8687;stroke-width:0.5;stroke-linecap:round;stroke-linejoin:miter;stroke-miterlimit:10;stroke-dasharray:none;stroke-opacity:1"
         id="path102"
         inkscape:connector-curvature="0"
         sodipodi:nodetypes="cc" /></g><g
       id="g104"
       transform="translate(431.3389,404)"><path
         d="M 0,0 H 17.334"
         style="fill:none;stroke:#ff8687;stroke-width:0.5;stroke-linecap:round;stroke-linejoin:miter;stroke-miterlimit:10;stroke-dasharray:none;stroke-opacity:1"
         id="path106"
         inkscape:connector-curvature="0" /></g><g
       id="g108"
       transform="translate(62.8853,404)"><path
         d="M 0,0 H 17.333"
         style="fill:none;stroke:#ff8687;stroke-width:0.5;stroke-linecap:round;stroke-linejoin:miter;stroke-miterlimit:10;stroke-dasharray:none;stroke-opacity:1"
         id="path110"
         inkscape:connector-curvature="0" /></g><g
       id="g112"><g
         id="g114"
         clip-path="url(#clipPath118)"><g
           id="g120"><g
             id="g122" /><g
             id="g184"><g
               clip-path="url(#clipPath126)"
               id="g182"
               style="opacity:0.39999402"><g
                 id="g180"><g
                   clip-path="url(#clipPath130)"
                   id="g178"><g
                     id="g176"><g
                       id="g168" /><g
                       mask="url(#mask146)"
                       id="g174"><g
                         id="g172"><path
                           d="m 0,380.727 c 0,0 126.142,21.557 248.415,7.559 C 386.911,372.43 500,400.462 500,400.462 V 188.165 H 0 Z"
                           style="fill:url(#linearGradient166);stroke:none"
                           id="path170"
                           inkscape:connector-curvature="0" /></g></g></g></g></g></g></g></g><g
           id="g186"><g
             id="g188" /><g
             id="g200"><g
               clip-path="url(#clipPath192)"
               id="g198"
               style="opacity:0.30000299"><g
                 transform="translate(368.2549,235.5146)"
                 id="g196"><path
                   d="m 0,0 c 0,-62.276 -50.485,-112.762 -112.762,-112.762 -62.277,0 -112.762,50.486 -112.762,112.762 0,62.277 50.485,112.762 112.762,112.762 C -50.485,112.762 0,62.277 0,0"
                   style="fill:#ffcccc;fill-opacity:1;fill-rule:nonzero;stroke:none"
                   id="path194"
                   inkscape:connector-curvature="0" /></g></g></g></g></g></g><g
       id="g202"
       transform="translate(262.0156,228.3369)"><path
         d="M 0,0 9.717,10.835 -15.5,31.705 h 9.328 l -13.8,10.524 26.496,27.283 -10.835,9.717 -24.833,-30.006 -2.377,1.813 -3.256,-2.483 -28.297,27.479 -9.717,-10.835 28.697,-23.749 -12.776,-9.743 h 9.696 V 29.611 L -69.599,6.52 l 10.836,-9.717 11.589,14.004 v -41.136 h -7.319 v -6.041 h 46.647 v 6.041 H -15.9 V 15.44 Z"
         style="fill:#ffb5b5;fill-opacity:1;fill-rule:nonzero;stroke:none"
         id="path204"
         inkscape:connector-curvature="0" /></g><path
       d="m 72.58,146.333 h 18.056 v 73.334 H 72.58 Z"
       style="fill:#ffd6d6;fill-opacity:1;fill-rule:nonzero;stroke:none"
       id="path206"
       inkscape:connector-curvature="0" /><path
       d="m 93.627,161.299 h 18.056 v 73.333 H 93.627 Z"
       style="fill:#ffd6d6;fill-opacity:1;fill-rule:nonzero;stroke:none"
       id="path208"
       inkscape:connector-curvature="0" /><path
       d="m 149.838,175.247 h 18.057 v 73.333 h -18.057 z"
       style="fill:#ffd6d6;fill-opacity:1;fill-rule:nonzero;stroke:none"
       id="path210"
       inkscape:connector-curvature="0" /><path
       d="m 172.825,190.241 h 18.056 v 73.333 h -18.056 z"
       style="fill:#ffd6d6;fill-opacity:1;fill-rule:nonzero;stroke:none"
       id="path212"
       inkscape:connector-curvature="0" /><path
       d="m 255.321,191.528 h 18.057 v 73.333 h -18.057 z"
       style="fill:#ffd6d6;fill-opacity:1;fill-rule:nonzero;stroke:none"
       id="path214"
       inkscape:connector-curvature="0" /><path
       d="m 329.081,178.15 h 18.057 v 73.333 h -18.057 z"
       style="fill:#ffd6d6;fill-opacity:1;fill-rule:nonzero;stroke:none"
       id="path216"
       inkscape:connector-curvature="0" /><path
       d="m 407.356,169.812 h 18.056 v 73.333 h -18.056 z"
       style="fill:#ffd6d6;fill-opacity:1;fill-rule:nonzero;stroke:none"
       id="path218"
       inkscape:connector-curvature="0" /><path
       d="m 387.613,197.033 h 18.057 v 73.333 h -18.057 z"
       style="fill:#ffd6d6;fill-opacity:1;fill-rule:nonzero;stroke:none"
       id="path220"
       inkscape:connector-curvature="0" /><path
       d="m 276.09,183.086 h 18.057 v 64.186 H 276.09 Z"
       style="fill:#ffd6d6;fill-opacity:1;fill-rule:nonzero;stroke:none"
       id="path222"
       inkscape:connector-curvature="0" /><path
       d="m 228.991,146.432 h 18.056 v 73.333 h -18.056 z"
       style="fill:#ffd6d6;fill-opacity:1;fill-rule:nonzero;stroke:none"
       id="path224"
       inkscape:connector-curvature="0" /><path
       d="M 164.759,143.355 H 93.563 v 38.936 h 71.196 z"
       style="fill:#ffd6d6;fill-opacity:1;fill-rule:nonzero;stroke:none"
       id="path226"
       inkscape:connector-curvature="0" /><g
       id="g228"><g
         id="g230"
         clip-path="url(#clipPath234)"><g
           id="g236"><g
             id="g238" /><g
             id="g250"><g
               clip-path="url(#clipPath242)"
               id="g248"
               style="opacity:0.80000299"><g
                 transform="translate(139.8301,364.0015)"
                 id="g246"><path
                   d="m 0,0 h -36.903 c -1.585,0 -3.017,-1.186 -3.087,-2.771 -0.074,-1.662 1.252,-3.033 2.897,-3.033 h 3.78 c 1.136,0 2.057,-0.921 2.057,-2.058 0,-1.138 -0.921,-2.059 -2.057,-2.059 h -12.791 c -1.585,0 -3.018,-1.186 -3.087,-2.77 -0.074,-1.663 1.252,-3.034 2.897,-3.034 H -9.39 c 1.585,0 3.017,1.186 3.087,2.771 0.073,1.662 -1.252,3.033 -2.898,3.033 h -12.98 c -1.137,0 -2.058,0.921 -2.058,2.059 0,1.137 0.921,2.058 2.058,2.058 h 21.992 c 1.585,0 3.017,1.187 3.087,2.771 C 2.971,-1.371 1.646,0 0,0"
                   style="fill:#ffffff;fill-opacity:1;fill-rule:nonzero;stroke:none"
                   id="path244"
                   inkscape:connector-curvature="0" /></g></g></g></g><g
           id="g252"><g
             id="g254" /><g
             id="g266"><g
               clip-path="url(#clipPath258)"
               id="g264"
               style="opacity:0.80000299"><g
                 transform="translate(387.3037,356.1392)"
                 id="g262"><path
                   d="m 0,0 h -36.903 c -1.585,0 -3.018,-1.187 -3.087,-2.771 -0.073,-1.662 1.252,-3.033 2.897,-3.033 h 3.78 c 1.136,0 2.057,-0.922 2.057,-2.058 0,-1.138 -0.921,-2.059 -2.057,-2.059 h -12.791 c -1.585,0 -3.018,-1.187 -3.087,-2.771 -0.074,-1.662 1.252,-3.033 2.897,-3.033 h 36.903 c 1.585,0 3.018,1.186 3.087,2.77 0.075,1.663 -1.252,3.034 -2.897,3.034 h -12.98 c -1.136,0 -2.058,0.921 -2.058,2.059 0,1.136 0.922,2.058 2.058,2.058 h 21.992 c 1.585,0 3.017,1.187 3.086,2.771 C 2.971,-1.371 1.646,0 0,0"
                   style="fill:#ffffff;fill-opacity:1;fill-rule:nonzero;stroke:none"
                   id="path260"
                   inkscape:connector-curvature="0" /></g></g></g></g></g></g><g
       id="g268"
       transform="translate(323.7568,196.7715)"><path
         d="M 0,0 H -5.317 L -6.424,94.207 -14.372,122.123 -22.878,94.207 -23.616,0 h -4.66 v -47.832 h 4.286 l -0.004,-0.434 H -4.75 l -0.006,0.434 H 0 Z"
         style="fill:#ffb5b5;fill-opacity:1;fill-rule:nonzero;stroke:none"
         id="path270"
         inkscape:connector-curvature="0" /></g><g
       id="g272"
       transform="translate(282.7646,149.4033)"><path
         d="M 0,0 46.572,65.775 95.495,0 Z"
         style="fill:#ffb5b5;fill-opacity:1;fill-rule:nonzero;stroke:none"
         id="path274"
         inkscape:connector-curvature="0" /></g><g
       id="g276"><g
         id="g278"
         clip-path="url(#clipPath282)"><g
           id="g284"
           transform="translate(123.6987,233.2607)"><path
             d="m 0,0 h 5.575 c 1.074,-10.795 9.206,-28.587 9.206,-28.587 H -9.207 c 0,0 7.263,17.042 9.207,28.587 m 29.952,-37.583 h 4.726 v 8.996 H 25.931 C 16.111,-12.194 11.602,9.796 11.602,9.796 h 7.058 v 6.996 h -7.467 c 0,0 -6.956,44.58 -5.115,89.06 h 5.575 v 12.294 l -6.752,3.298 v 15.893 H 0.298 v -15.893 l -6.751,-3.298 v -12.294 h 5.575 C 0.963,61.372 -5.993,16.792 -5.993,16.792 H -13.46 V 9.796 h 7.058 c 0,0 -4.135,-21.99 -13.955,-38.383 h -7.978 v -8.996 h 4.725 c 0,0 -12.5,-23.988 -34.391,-47.777 h 24.755 c 0,0 4.992,32.239 36.315,33.141 31.322,-0.902 36.314,-33.141 36.314,-33.141 h 24.756 c -21.891,23.789 -34.187,47.777 -34.187,47.777"
             style="fill:#ffa2a2;fill-opacity:1;fill-rule:nonzero;stroke:none"
             id="path286"
             inkscape:connector-curvature="0" /></g><g
           id="g288"
           transform="translate(200.6289,178.6514)"><path
             d="m 0,0 c -3.886,0 -7.036,3.15 -7.036,7.036 0,3.887 3.15,7.036 7.036,7.036 3.886,0 7.036,-3.149 7.036,-7.036 C 7.036,3.15 3.886,0 0,0 m 34.767,26.075 v 1.932 h -2.794 v 22.074 h 1.242 v 0.966 h -1.242 v 1.103 h -1.242 v 3.725 H 12.934 V 52.15 h -1.241 v -1.103 h -1.242 v -0.966 h 1.242 V 28.007 H 3.173 L 0,39.458 v 10.623 h 3.173 v 1.104 H 0 v 2.345 h -1.379 v -2.345 h -3.174 v -1.104 h 3.174 V 39.458 L -4.553,28.007 h -8.278 v 21.591 h 1.242 v 0.965 h -1.242 v 1.587 h -1.241 v 3.725 H -31.869 V 52.15 h -1.242 v -1.587 h -1.242 v -0.965 h 1.242 V 28.007 h -2.483 -0.276 v -1.932 h 1.931 V 9.658 h -1.379 V 8.83 h 1.379 v -36.146 h -1.931 v -1.932 h 1.931 66.774 1.932 v 1.932 H 32.835 V 8.83 h 1.38 v 0.828 h -1.38 v 16.417 z"
             style="fill:#ffa2a2;fill-opacity:1;fill-rule:nonzero;stroke:none"
             id="path290"
             inkscape:connector-curvature="0" /></g><path
           d="m 304.286,192.607 h -1.443 v 1.574 h 1.443 z m -58.791,1.575 h 1.444 v -1.574 h -1.444 z m 54.855,0 h 1.443 v -1.574 h -1.443 z m -2.494,0 h 1.443 v -1.574 h -1.443 z m -2.494,0 h 1.444 v -1.574 h -1.444 z m -2.493,0 h 1.443 v -1.574 h -1.443 z m -2.493,0 h 1.443 v -1.574 h -1.443 z m -2.493,0 h 1.443 v -1.574 h -1.443 z m -2.493,0 h 1.443 v -1.574 h -1.443 z m -2.494,0 h 1.444 v -1.574 h -1.444 z m -2.494,0 h 1.443 v -1.574 h -1.443 z m -2.493,0 h 1.443 v -1.574 h -1.443 z m -2.493,0 h 1.443 v -1.574 h -1.443 z m -2.493,0 h 1.443 v -1.574 h -1.443 z m -2.494,0 h 1.444 v -1.574 h -1.444 z m -2.493,0 h 1.443 v -1.574 h -1.443 z m -2.494,0 h 1.443 v -1.574 h -1.443 z m -2.493,0 h 1.443 v -1.574 h -1.443 z m -2.494,0 h 1.444 v -1.574 h -1.444 z m -2.493,0 h 1.444 v -1.574 h -1.444 z m -2.493,0 h 1.443 v -1.574 h -1.443 z m -2.493,0 h 1.443 v -1.574 h -1.443 z m -3.544,-1.575 h -1.443 v 1.574 h 1.443 z m 1.05,1.575 h 1.444 v -1.574 h -1.444 z m 54.806,11.286 v 5.905 h 2.232 v 3.806 h -65.484 v -3.806 h 2.231 v -5.905 h -4.331 v -3.806 h 0.656 v -1.247 h 0.984 V 199.3 h 1.575 v -4.298 h -1.247 v -0.82 h 1.247 1.295 v -1.575 h -1.295 -1.247 v -0.82 h 1.247 v -10.072 h -1.575 v -1.313 h 1.575 V 145.89 h -2.38 v -1.576 h 2.38 3 18.785 v 25.197 c 0,0.133 0.014,0.261 0.019,0.393 h 2.193 v 1.575 h -2.015 c 0.912,4.493 4.883,7.874 9.644,7.874 4.762,0 8.733,-3.381 9.645,-7.874 h -1.526 v -1.575 h 1.704 c 0.004,-0.132 0.019,-0.26 0.019,-0.393 v -25.197 h 18.88 2.905 2.476 v 1.576 h -2.476 v 34.512 h 1.575 v 1.313 h -1.575 v 10.072 h 1.246 v 0.82 h -1.246 -1.068 v 1.575 h 1.068 1.246 v 0.82 h -1.246 v 4.298 h 1.575 v 1.115 h 0.984 v 1.247 h 0.656 v 3.806 z"
           style="fill:#ffa2a2;fill-opacity:1;fill-rule:nonzero;stroke:none"
           id="path292"
           inkscape:connector-curvature="0" /><g
           id="g294"
           transform="translate(417.3379,180.0557)"><path
             d="M 0,0 V 22.495 H -1.588 V 36.97 h 0.96 v 1.323 h -1.005 c -0.107,1.386 -0.646,2.701 -1.599,3.728 -0.963,1.038 -2.381,2.268 -4.336,3.277 v 5.961 c 0,0.792 -0.498,1.458 -1.196,1.727 v 2.11 h 1.417 v 1.453 h -1.417 v 1.788 h -1.263 v -1.788 h -1.417 v -1.453 h 1.417 v -2.095 c -0.733,-0.251 -1.267,-0.925 -1.267,-1.742 v -5.961 c 0,0 -2.274,-0.634 -4.785,-3.859 -0.698,-0.897 -1.062,-2.011 -1.106,-3.146 h -0.976 V 36.97 h 0.958 V 24.883 l -6.087,4.096 V 56.9 h 1.638 v 1.324 h -1.638 v 1.323 h 1.638 v 1.324 h -1.664 c -0.066,1.226 -0.49,2.412 -1.237,3.392 -4.291,5.632 -8.601,8.571 -11.458,10.051 v 8.855 c 0,1.446 -0.923,2.666 -2.208,3.132 v 3.754 h 2.542 v 2.607 h -2.542 v 3.209 h -2.268 v -3.209 h -2.543 v -2.607 h 2.543 v -3.754 c -1.285,-0.466 -2.209,-1.686 -2.209,-3.132 v -8.742 c -4.931,-2.479 -10.071,-7.431 -11.656,-9.98 -0.671,-1.079 -1.027,-2.308 -1.054,-3.576 h -1.313 v -1.324 h 1.302 v -1.323 h -1.302 V 56.9 h 1.302 V 28.609 l -5.536,-3.726 v 12.136 h 0.86 v 1.323 h -0.882 c -0.053,1.118 -0.414,2.213 -1.102,3.097 -2.511,3.225 -4.785,3.859 -4.785,3.859 v 5.961 c 0,0.817 -0.534,1.491 -1.267,1.742 v 2.095 h 1.417 v 1.453 h -1.417 v 1.788 h -1.264 v -1.788 h -1.417 v -1.453 h 1.417 v -2.11 c -0.696,-0.269 -1.194,-0.935 -1.194,-1.727 v -5.961 c -1.956,-1.009 -3.374,-2.239 -4.337,-3.277 -0.941,-1.014 -1.477,-2.311 -1.595,-3.679 h -1.108 v -1.323 h 1.059 V 22.495 h -1.588 V 0 H -90.289 V -32.155 H 12.133 l 0,32.155 z"
             style="fill:#ffa2a2;fill-opacity:1;fill-rule:nonzero;stroke:none"
             id="path296"
             inkscape:connector-curvature="0" /></g><g
           id="g298"
           transform="translate(366.1162,302.813)"><path
             d="m 0,0 h -8.242 l -2.992,12.732 c 2.077,-1.528 4.633,-2.443 7.41,-2.443 2.468,0 4.762,0.724 6.702,1.957 z m 8.701,22.815 c 0,6.918 -5.607,12.526 -12.525,12.526 -6.918,0 -12.527,-5.608 -12.527,-12.526 0,-3.537 1.472,-6.725 3.83,-9.002 L -9.275,0 h -2.229 l 0.946,-6.745 c 0.142,-1.006 1.002,-1.755 2.019,-1.755 h 8.684 c 1.015,0 1.876,0.749 2.018,1.755 L 3.109,0 H 1.034 L 4.12,13.132 c 2.797,2.298 4.581,5.782 4.581,9.683"
             style="fill:#ffb5b5;fill-opacity:1;fill-rule:nonzero;stroke:none"
             id="path300"
             inkscape:connector-curvature="0" /></g><g
           id="g302"
           transform="translate(396.835,324.7334)"><path
             d="m 0,0 h -8.242 l -2.992,12.732 c 2.076,-1.529 4.632,-2.443 7.409,-2.443 2.469,0 4.763,0.724 6.703,1.957 z m 8.701,22.815 c 0,6.918 -5.608,12.526 -12.526,12.526 -6.918,0 -12.526,-5.608 -12.526,-12.526 0,-3.537 1.472,-6.725 3.829,-9.002 L -9.275,0 h -2.23 l 0.947,-6.745 C -10.417,-7.751 -9.556,-8.5 -8.54,-8.5 h 8.684 c 1.016,0 1.877,0.749 2.018,1.755 L 3.109,0 H 1.033 L 4.12,13.132 c 2.796,2.298 4.581,5.782 4.581,9.683"
             style="fill:#ffc1c0;fill-opacity:1;fill-rule:nonzero;stroke:none"
             id="path304"
             inkscape:connector-curvature="0" /></g><g
           id="g306"><g
             id="g308" /><g
             id="g320"><g
               clip-path="url(#clipPath312)"
               id="g318"
               style="opacity:0.80000299"><g
                 transform="translate(102.0713,274.9741)"
                 id="g316"><path
                   d="m 0,0 h -36.904 c -1.585,0 -3.017,-1.187 -3.087,-2.771 -0.073,-1.662 1.253,-3.033 2.898,-3.033 h 3.779 c 1.137,0 2.058,-0.922 2.058,-2.059 0,-1.137 -0.921,-2.058 -2.058,-2.058 h -12.79 c -1.585,0 -3.018,-1.187 -3.088,-2.771 -0.073,-1.662 1.253,-3.033 2.898,-3.033 h 36.903 c 1.585,0 3.017,1.186 3.088,2.77 0.073,1.663 -1.253,3.034 -2.898,3.034 h -12.98 c -1.137,0 -2.058,0.921 -2.058,2.058 0,1.137 0.921,2.059 2.058,2.059 h 21.992 c 1.585,0 3.017,1.186 3.086,2.771 C 2.971,-1.371 1.646,0 0,0"
                   style="fill:#ffffff;fill-opacity:1;fill-rule:nonzero;stroke:none"
                   id="path314"
                   inkscape:connector-curvature="0" /></g></g></g></g><g
           id="g322"><g
             id="g324" /><g
             id="g336"><g
               clip-path="url(#clipPath328)"
               id="g334"
               style="opacity:0.80000299"><g
                 transform="translate(452.6182,283.7896)"
                 id="g332"><path
                   d="m 0,0 h -36.904 c -1.585,0 -3.017,-1.187 -3.087,-2.771 -0.073,-1.662 1.252,-3.033 2.897,-3.033 h 3.78 c 1.136,0 2.058,-0.922 2.058,-2.059 0,-1.137 -0.922,-2.058 -2.058,-2.058 h -12.791 c -1.585,0 -3.017,-1.187 -3.087,-2.771 -0.074,-1.662 1.253,-3.033 2.898,-3.033 h 36.903 c 1.585,0 3.017,1.186 3.087,2.77 0.074,1.663 -1.252,3.034 -2.897,3.034 h -12.981 c -1.136,0 -2.057,0.921 -2.057,2.058 0,1.137 0.921,2.059 2.057,2.059 h 21.993 c 1.585,0 3.016,1.187 3.086,2.771 C 2.971,-1.371 1.646,0 0,0"
                   style="fill:#ffffff;fill-opacity:1;fill-rule:nonzero;stroke:none"
                   id="path330"
                   inkscape:connector-curvature="0" /></g></g></g></g><g
           id="g338"><g
             id="g340" /><g
             id="g352"><g
               clip-path="url(#clipPath344)"
               id="g350"
               style="opacity:0.80000299"><g
                 transform="translate(269.4102,363.1475)"
                 id="g348"><path
                   d="m 0,0 h -36.903 c -1.585,0 -3.017,-1.187 -3.087,-2.771 -0.073,-1.662 1.252,-3.033 2.898,-3.033 h 3.779 c 1.136,0 2.058,-0.922 2.058,-2.058 0,-1.138 -0.922,-2.059 -2.058,-2.059 h -12.791 c -1.585,0 -3.017,-1.187 -3.087,-2.771 -0.074,-1.662 1.252,-3.033 2.898,-3.033 H -9.39 c 1.585,0 3.017,1.186 3.087,2.77 0.074,1.663 -1.252,3.034 -2.897,3.034 h -12.981 c -1.136,0 -2.058,0.921 -2.058,2.059 0,1.136 0.922,2.058 2.058,2.058 h 21.993 c 1.584,0 3.016,1.187 3.086,2.771 C 2.972,-1.371 1.646,0 0,0"
                   style="fill:#ffffff;fill-opacity:1;fill-rule:nonzero;stroke:none"
                   id="path346"
                   inkscape:connector-curvature="0" /></g></g></g></g><g
           id="g354"
           transform="translate(167.625,364.0015)"><path
             d="M 0,0 5.854,-5.854"
             style="fill:none;stroke:#ff8687;stroke-width:0.48100001;stroke-linecap:round;stroke-linejoin:miter;stroke-miterlimit:10;stroke-dasharray:none;stroke-opacity:1"
             id="path356"
             inkscape:connector-curvature="0" /></g><g
           id="g358"
           transform="translate(173.4795,364.0015)"><path
             d="M 0,0 -5.854,-5.854"
             style="fill:none;stroke:#ff8687;stroke-width:0.48100001;stroke-linecap:round;stroke-linejoin:miter;stroke-miterlimit:10;stroke-dasharray:none;stroke-opacity:1"
             id="path360"
             inkscape:connector-curvature="0" /></g><g
           id="g362"
           transform="translate(309.1113,354.5068)"><path
             d="M 0,0 5.854,-5.854"
             style="fill:none;stroke:#ff8687;stroke-width:0.48100001;stroke-linecap:round;stroke-linejoin:miter;stroke-miterlimit:10;stroke-dasharray:none;stroke-opacity:1"
             id="path364"
             inkscape:connector-curvature="0" /></g><g
           id="g366"
           transform="translate(314.9658,354.5068)"><path
             d="M 0,0 -5.854,-5.854"
             style="fill:none;stroke:#ff8687;stroke-width:0.48100001;stroke-linecap:round;stroke-linejoin:miter;stroke-miterlimit:10;stroke-dasharray:none;stroke-opacity:1"
             id="path368"
             inkscape:connector-curvature="0" /></g><g
           id="g370"
           transform="translate(90.6357,325.3452)"><path
             d="M 0,0 5.854,-5.854"
             style="fill:none;stroke:#ff8687;stroke-width:0.48100001;stroke-linecap:round;stroke-linejoin:miter;stroke-miterlimit:10;stroke-dasharray:none;stroke-opacity:1"
             id="path372"
             inkscape:connector-curvature="0" /></g><g
           id="g374"
           transform="translate(96.4902,325.3452)"><path
             d="M 0,0 -5.854,-5.854"
             style="fill:none;stroke:#ff8687;stroke-width:0.48100001;stroke-linecap:round;stroke-linejoin:miter;stroke-miterlimit:10;stroke-dasharray:none;stroke-opacity:1"
             id="path376"
             inkscape:connector-curvature="0" /></g><g
           id="g378"
           transform="translate(65.6978,236.627)"><path
             d="M 0,0 5.854,-5.854"
             style="fill:none;stroke:#ff8687;stroke-width:0.48100001;stroke-linecap:round;stroke-linejoin:miter;stroke-miterlimit:10;stroke-dasharray:none;stroke-opacity:1"
             id="path380"
             inkscape:connector-curvature="0" /></g><g
           id="g382"
           transform="translate(71.5522,236.627)"><path
             d="M 0,0 -5.854,-5.854"
             style="fill:none;stroke:#ff8687;stroke-width:0.48100001;stroke-linecap:round;stroke-linejoin:miter;stroke-miterlimit:10;stroke-dasharray:none;stroke-opacity:1"
             id="path384"
             inkscape:connector-curvature="0" /></g><g
           id="g386"
           transform="translate(227.5513,319.1606)"><path
             d="M 0,0 5.854,-5.854"
             style="fill:none;stroke:#ff8687;stroke-width:0.48100001;stroke-linecap:round;stroke-linejoin:miter;stroke-miterlimit:10;stroke-dasharray:none;stroke-opacity:1"
             id="path388"
             inkscape:connector-curvature="0" /></g><g
           id="g390"
           transform="translate(233.4058,319.1606)"><path
             d="M 0,0 -5.854,-5.854"
             style="fill:none;stroke:#ff8687;stroke-width:0.48100001;stroke-linecap:round;stroke-linejoin:miter;stroke-miterlimit:10;stroke-dasharray:none;stroke-opacity:1"
             id="path392"
             inkscape:connector-curvature="0" /></g><g
           id="g394"
           transform="translate(429.4707,359.0664)"><path
             d="M 0,0 5.854,-5.854"
             style="fill:none;stroke:#ff8687;stroke-width:0.48100001;stroke-linecap:round;stroke-linejoin:miter;stroke-miterlimit:10;stroke-dasharray:none;stroke-opacity:1"
             id="path396"
             inkscape:connector-curvature="0" /></g><g
           id="g398"
           transform="translate(435.3252,359.0664)"><path
             d="M 0,0 -5.854,-5.854"
             style="fill:none;stroke:#ff8687;stroke-width:0.48100001;stroke-linecap:round;stroke-linejoin:miter;stroke-miterlimit:10;stroke-dasharray:none;stroke-opacity:1"
             id="path400"
             inkscape:connector-curvature="0" /></g><g
           id="g402"
           transform="translate(419.5576,267.1113)"><path
             d="M 0,0 5.854,-5.854"
             style="fill:none;stroke:#ff8687;stroke-width:0.48100001;stroke-linecap:round;stroke-linejoin:miter;stroke-miterlimit:10;stroke-dasharray:none;stroke-opacity:1"
             id="path404"
             inkscape:connector-curvature="0" /></g><g
           id="g406"
           transform="translate(425.4121,267.1113)"><path
             d="M 0,0 -5.854,-5.854"
             style="fill:none;stroke:#ff8687;stroke-width:0.48100001;stroke-linecap:round;stroke-linejoin:miter;stroke-miterlimit:10;stroke-dasharray:none;stroke-opacity:1"
             id="path408"
             inkscape:connector-curvature="0" /></g><g
           id="g410"
           transform="translate(65.6978,302.2476)"><path
             d="M 0,0 H 16.667"
             style="fill:none;stroke:#ff8687;stroke-width:0.48100001;stroke-linecap:round;stroke-linejoin:miter;stroke-miterlimit:10;stroke-dasharray:none;stroke-opacity:1"
             id="path412"
             inkscape:connector-curvature="0" /></g><g
           id="g414"
           transform="translate(177.3877,329)"><path
             d="M 0,0 H 16.667"
             style="fill:none;stroke:#ff8687;stroke-width:0.48100001;stroke-linecap:round;stroke-linejoin:miter;stroke-miterlimit:10;stroke-dasharray:none;stroke-opacity:1"
             id="path416"
             inkscape:connector-curvature="0" /></g><g
           id="g418"
           transform="translate(244.0024,377.814)"><path
             d="M 0,0 H 16.667"
             style="fill:none;stroke:#ff8687;stroke-width:0.48100001;stroke-linecap:round;stroke-linejoin:miter;stroke-miterlimit:10;stroke-dasharray:none;stroke-opacity:1"
             id="path420"
             inkscape:connector-curvature="0" /></g><g
           id="g422"
           transform="translate(344.8867,370.5981)"><path
             d="M 0,0 H 16.668"
             style="fill:none;stroke:#ff8687;stroke-width:0.48100001;stroke-linecap:round;stroke-linejoin:miter;stroke-miterlimit:10;stroke-dasharray:none;stroke-opacity:1"
             id="path424"
             inkscape:connector-curvature="0" /></g><g
           id="g426"
           transform="translate(88.1563,287.5034)"><path
             d="M 0,0 H 16.667"
             style="fill:none;stroke:#ff8687;stroke-width:0.48100001;stroke-linecap:round;stroke-linejoin:miter;stroke-miterlimit:10;stroke-dasharray:none;stroke-opacity:1"
             id="path428"
             inkscape:connector-curvature="0" /></g><g
           id="g430"
           transform="translate(153.8848,283.7896)"><path
             d="M 0,0 H 16.667"
             style="fill:none;stroke:#ff8687;stroke-width:0.48100001;stroke-linecap:round;stroke-linejoin:miter;stroke-miterlimit:10;stroke-dasharray:none;stroke-opacity:1"
             id="path432"
             inkscape:connector-curvature="0" /></g><g
           id="g434"
           transform="translate(272.9336,325.3452)"><path
             d="M 0,0 H 16.667"
             style="fill:none;stroke:#ff8687;stroke-width:0.48100001;stroke-linecap:round;stroke-linejoin:miter;stroke-miterlimit:10;stroke-dasharray:none;stroke-opacity:1"
             id="path436"
             inkscape:connector-curvature="0" /></g><g
           id="g438"
           transform="translate(421.1367,305.1772)"><path
             d="M 0,0 H 16.668"
             style="fill:none;stroke:#ff8687;stroke-width:0.48100001;stroke-linecap:round;stroke-linejoin:miter;stroke-miterlimit:10;stroke-dasharray:none;stroke-opacity:1"
             id="path440"
             inkscape:connector-curvature="0" /></g><g
           id="g442"
           transform="translate(432.7051,233.7002)"><path
             d="M 0,0 H 16.668"
             style="fill:none;stroke:#ff8687;stroke-width:0.48100001;stroke-linecap:round;stroke-linejoin:miter;stroke-miterlimit:10;stroke-dasharray:none;stroke-opacity:1"
             id="path444"
             inkscape:connector-curvature="0" /></g><g
           id="g446"
           transform="translate(55.9121,206.4785)"><path
             d="M 0,0 H 16.667"
             style="fill:none;stroke:#ff8687;stroke-width:0.48100001;stroke-linecap:round;stroke-linejoin:miter;stroke-miterlimit:10;stroke-dasharray:none;stroke-opacity:1"
             id="path448"
             inkscape:connector-curvature="0" /></g><g
           id="g450"
           transform="translate(338.1094,275.9268)"><path
             d="M 0,0 H 16.667"
             style="fill:none;stroke:#ff8687;stroke-width:0.48100001;stroke-linecap:round;stroke-linejoin:miter;stroke-miterlimit:10;stroke-dasharray:none;stroke-opacity:1"
             id="path452"
             inkscape:connector-curvature="0" /></g><g
           id="g454"
           transform="translate(47.5786,247.9385)"><path
             d="M 0,0 H 16.667"
             style="fill:none;stroke:#ff8687;stroke-width:0.48100001;stroke-linecap:round;stroke-linejoin:miter;stroke-miterlimit:10;stroke-dasharray:none;stroke-opacity:1"
             id="path456"
             inkscape:connector-curvature="0" /></g><g
           id="g458"
           transform="translate(426.6445,137.4424)"><path
             d="M 0,0 H -0.745 V 0.544 C -0.492,0.419 -0.242,0.291 0,0.154 Z M -1.204,0 H -1.949 V 0.775 H -2.408 V 0 H -3.153 V 0.775 H -3.612 V 0 H -4.358 V 0.775 H -4.816 V 0 H -5.562 V 0.775 H -6.021 V 0 H -6.767 V 0.775 H -7.226 V 0 H -7.971 V 0.775 H -8.43 V 0 H -9.175 V 0.775 H -9.634 V 0 h -0.746 v 0.775 h -0.458 V 0 h -0.746 v 0.775 h -0.459 V 0 h -0.745 v 0.775 h -0.459 V 0 h -0.745 v 0.775 h -0.459 V 0 h -0.745 v 0.775 h -0.459 V 0 h -0.746 v 0.775 h -0.266 c 2.275,1.041 4.907,1.646 7.721,1.646 2.823,0 5.462,-0.609 7.742,-1.655 z m -15.655,0 h -0.746 v 0.323 c 0.241,0.129 0.496,0.241 0.746,0.36 z m -1.205,0 h -0.088 c 0.03,0.017 0.058,0.035 0.088,0.052 z m -25.577,0 h -0.746 v 0.572 c 0.253,-0.124 0.504,-0.249 0.746,-0.385 z m -1.205,0.775 V 0 h -0.745 V 0.775 H -46.05 V 0 h -0.745 v 0.775 h -0.459 V 0 h -0.745 v 0.775 h -0.459 V 0 h -0.745 v 0.775 h -0.459 V 0 h -0.746 v 0.775 h -0.459 V 0 h -0.745 v 0.775 h -0.459 V 0 h -0.745 v 0.775 h -0.459 V 0 h -0.746 v 0.775 h -0.458 V 0 h -0.746 v 0.775 h -0.459 V 0 h -0.746 v 0.775 h -0.459 V 0 h -0.745 v 0.775 h -0.459 V 0 h -0.745 v 0.775 h -0.459 V 0 h -0.745 v 0.775 h -0.209 c 2.275,1.041 4.907,1.646 7.721,1.646 2.814,0 5.446,-0.605 7.721,-1.646 z M -60.501,0 h -0.745 v 0.29 c 0.24,0.131 0.495,0.245 0.745,0.365 z m -1.204,0 h -0.031 c 0.01,0.006 0.02,0.012 0.031,0.018 z m -25.348,0 h -0.745 v 0.489 c 0.254,-0.129 0.501,-0.263 0.745,-0.403 z m -1.204,0 h -0.746 v 0.775 h -0.459 V 0 h -0.745 v 0.775 h -0.459 V 0 h -0.745 V 0.775 H -91.87 V 0 h -0.745 v 0.775 h -0.459 V 0 h -0.745 v 0.775 h -0.459 V 0 h -0.746 v 0.775 h -0.459 V 0 h -0.746 v 0.775 h -0.459 V 0 h -0.745 v 0.775 h -0.459 V 0 h -0.745 v 0.775 h -0.459 V 0 h -0.745 V 0.775 H -100.3 V 0 h -0.746 v 0.775 h -0.458 V 0 h -0.746 v 0.775 h -0.459 V 0 h -0.745 v 0.775 h -0.381 c 2.275,1.041 4.907,1.646 7.722,1.646 2.87,0 5.55,-0.631 7.856,-1.711 z m -15.656,0 h -0.745 v 0.378 c 0.242,0.128 0.494,0.243 0.745,0.36 z m -1.204,0 h -0.202 c 0.067,0.039 0.133,0.081 0.202,0.12 z m -20.393,0 h -0.746 v 0.544 c 0.253,-0.125 0.503,-0.253 0.746,-0.39 z m -1.204,0 h -0.746 v 0.775 h -0.458 V 0 h -0.746 v 0.775 h -0.459 V 0 h -0.745 v 0.775 h -0.459 V 0 h -0.745 v 0.775 h -0.459 V 0 h -0.745 v 0.775 h -0.459 V 0 h -0.746 v 0.775 h -0.458 V 0 h -0.747 v 0.775 h -0.459 V 0 h -0.745 v 0.775 h -0.459 V 0 h -0.745 v 0.775 h -0.459 V 0 h -0.745 v 0.775 h -0.459 V 0 h -0.746 v 0.775 h -0.458 V 0 h -0.746 v 0.775 h -0.459 V 0 h -0.745 v 0.775 h -0.267 c 2.277,1.041 4.907,1.646 7.722,1.646 2.823,0 5.462,-0.609 7.742,-1.655 z m -15.656,0 h -0.745 v 0.323 c 0.24,0.129 0.495,0.241 0.745,0.36 z m -1.204,0 h -0.088 c 0.029,0.017 0.058,0.035 0.088,0.052 z m -25.577,0 h -0.745 v 0.572 c 0.251,-0.124 0.502,-0.249 0.745,-0.385 z m -1.204,0.775 V 0 h -0.746 v 0.775 h -0.459 V 0 h -0.746 v 0.775 h -0.458 V 0 h -0.746 v 0.775 h -0.459 V 0 h -0.745 v 0.775 h -0.459 V 0 h -0.745 v 0.775 h -0.459 V 0 h -0.746 v 0.775 h -0.458 V 0 h -0.746 v 0.775 h -0.459 V 0 h -0.745 v 0.775 h -0.459 V 0 h -0.745 v 0.775 h -0.459 V 0 h -0.745 v 0.775 h -0.459 V 0 h -0.746 v 0.775 h -0.459 V 0 h -0.745 v 0.775 h -0.459 V 0 h -0.745 v 0.775 h -0.209 c 2.275,1.041 4.907,1.646 7.721,1.646 2.814,0 5.446,-0.605 7.722,-1.646 z M -186.011,0 h -0.746 v 0.29 c 0.241,0.131 0.495,0.245 0.746,0.365 z m -1.204,0 h -0.031 l 0.031,0.018 z m -25.348,0 h -0.746 v 0.489 c 0.254,-0.129 0.502,-0.263 0.746,-0.403 z m -1.205,0 h -0.745 v 0.775 h -0.459 V 0 h -0.745 v 0.775 h -0.459 V 0 h -0.745 v 0.775 h -0.459 V 0 h -0.746 v 0.775 h -0.458 V 0 h -0.746 v 0.775 h -0.459 V 0 h -0.745 v 0.775 h -0.459 V 0 h -0.746 v 0.775 h -0.458 V 0 h -0.746 v 0.775 h -0.459 V 0 h -0.745 v 0.775 h -0.459 V 0 h -0.746 v 0.775 h -0.459 V 0 h -0.745 v 0.775 h -0.459 V 0 h -0.745 v 0.775 h -0.459 V 0 h -0.745 v 0.775 h -0.381 c 2.275,1.041 4.907,1.646 7.721,1.646 2.871,0 5.55,-0.631 7.856,-1.711 z m -15.655,0 h -0.745 v 0.378 c 0.241,0.128 0.493,0.243 0.745,0.36 z m -1.204,0 h -0.203 c 0.068,0.039 0.134,0.081 0.203,0.12 z m -20.651,0 h -0.745 v 0.544 c 0.252,-0.125 0.502,-0.253 0.745,-0.39 z m -1.204,0 h -0.746 v 0.775 h -0.459 V 0 h -0.745 v 0.775 h -0.459 V 0 h -0.745 v 0.775 h -0.459 V 0 h -0.746 v 0.775 h -0.458 V 0 h -0.746 v 0.775 h -0.459 V 0 h -0.746 v 0.775 h -0.458 V 0 h -0.746 v 0.775 h -0.458 V 0 h -0.746 v 0.775 h -0.459 V 0 h -0.745 v 0.775 h -0.459 V 0 h -0.745 v 0.775 h -0.459 V 0 h -0.746 v 0.775 h -0.458 V 0 h -0.746 v 0.775 h -0.459 V 0 h -0.745 v 0.775 h -0.266 c 2.275,1.041 4.906,1.646 7.721,1.646 2.823,0 5.461,-0.609 7.742,-1.655 z m -15.656,0 h -0.746 v 0.323 c 0.241,0.129 0.496,0.241 0.746,0.36 z m -1.204,0 h -0.088 c 0.029,0.017 0.058,0.035 0.088,0.052 z m -25.577,0 h -0.746 v 0.572 c 0.252,-0.124 0.503,-0.249 0.746,-0.385 z m -1.205,0.775 V 0 h -0.745 v 0.775 h -0.459 V 0 h -0.745 v 0.775 h -0.459 V 0 h -0.746 v 0.775 h -0.458 V 0 h -0.746 v 0.775 h -0.459 V 0 h -0.745 v 0.775 h -0.459 V 0 h -0.746 v 0.775 h -0.458 V 0 h -0.746 v 0.775 h -0.459 V 0 h -0.745 v 0.775 h -0.459 V 0 h -0.745 v 0.775 h -0.459 V 0 h -0.746 v 0.775 h -0.459 V 0 h -0.745 v 0.775 h -0.459 V 0 h -0.745 v 0.775 h -0.459 V 0 h -0.746 v 0.775 h -0.208 c 2.275,1.041 4.906,1.646 7.721,1.646 2.814,0 5.446,-0.605 7.721,-1.646 z M -311.779,0 h -0.746 v 0.29 c 0.241,0.131 0.495,0.245 0.746,0.365 z m -1.205,0 h -0.03 c 0.01,0.006 0.02,0.012 0.03,0.018 z m -25.347,0 h -0.746 v 0.489 c 0.254,-0.129 0.502,-0.263 0.746,-0.403 z m -1.205,0 h -0.745 v 0.775 h -0.459 V 0 h -0.745 v 0.775 h -0.459 V 0 h -0.745 v 0.775 h -0.459 V 0 h -0.746 v 0.775 h -0.459 V 0 h -0.745 v 0.775 h -0.459 V 0 h -0.745 v 0.775 h -0.459 V 0 h -0.746 v 0.775 h -0.458 V 0 h -0.746 v 0.775 h -0.459 V 0 h -0.746 v 0.775 h -0.458 V 0 h -0.746 v 0.775 h -0.459 V 0 h -0.745 v 0.775 h -0.459 V 0 h -0.745 v 0.775 h -0.459 V 0 h -0.745 v 0.775 h -0.381 c 2.275,1.041 4.907,1.646 7.721,1.646 2.871,0 5.55,-0.631 7.856,-1.711 z m -15.655,0 h -0.746 v 0.378 c 0.242,0.128 0.494,0.243 0.746,0.36 z m -1.205,0 h -0.202 c 0.068,0.039 0.134,0.081 0.202,0.12 z M 13.133,13.037 v 3.229 H 6.596 V 13.037 H 6.251 v 1.18 H 5.792 v -1.18 H 5.047 v 1.18 H 4.588 v -1.18 H 3.843 v 1.18 H 3.384 v -1.18 H 2.639 v 1.18 H 2.18 v -1.18 H 1.434 v 1.18 H 0.976 v -1.18 H 0.229 v 1.18 h -0.458 v -1.18 h -0.746 v 1.18 h -0.459 v -1.18 h -0.745 v 1.18 h -0.459 v -1.18 h -0.745 v 1.18 h -0.459 v -1.18 h -0.746 v 1.18 h -0.458 v -1.18 h -0.746 v 1.18 H -6.25 v -1.18 h -0.746 v 1.18 h -0.459 v -1.18 H -8.2 v 1.18 h -0.459 v -1.18 h -0.745 v 1.18 h -0.459 v -1.18 h -0.746 v 1.18 h -0.458 v -1.18 h -0.746 v 1.18 h -0.458 v -1.18 h -0.747 v 1.18 h -0.459 v -1.18 h -0.745 v 1.18 h -0.459 v -1.18 h -0.745 v 1.18 h -0.459 v -1.18 h -0.746 v 1.18 h -0.458 v -1.18 h -0.746 v 1.18 h -0.458 v -1.18 h -0.746 v 1.18 h -0.459 v -1.18 h -0.745 v 1.18 h -0.459 v -1.18 h -0.745 v 1.18 h -0.459 v -1.18 h -0.746 v 1.18 h -0.458 v -1.18 h -0.746 v 1.18 h -0.458 v -1.18 h -0.747 v 1.18 h -0.459 v -1.18 h -0.745 v 1.18 h -0.459 v -1.18 h -0.745 v 1.18 h -0.459 v -1.18 h -0.343 v 3.229 h -6.539 v -3.229 h -1.146 v 1.18 h -0.459 v -1.18 h -0.746 v 1.18 h -0.458 v -1.18 h -0.746 v 1.18 h -0.459 v -1.18 h -0.745 v 1.18 h -0.459 v -1.18 h -0.745 v 1.18 h -0.459 v -1.18 h -0.746 v 1.18 h -0.459 v -1.18 h -0.746 v 1.18 h -0.458 v -1.18 h -0.746 v 1.18 h -0.459 v -1.18 h -0.745 v 1.18 h -0.459 v -1.18 h -0.745 v 1.18 h -0.459 v -1.18 h -0.745 v 1.18 h -0.459 v -1.18 h -0.745 v 1.18 h -0.459 v -1.18 h -0.746 v 1.18 h -0.459 v -1.18 h -0.745 v 1.18 h -0.459 v -1.18 h -0.745 v 1.18 h -0.459 v -1.18 h -0.746 v 1.18 h -0.458 v -1.18 h -0.746 v 1.18 h -0.459 v -1.18 h -0.746 v 1.18 h -0.459 v -1.18 h -0.745 v 1.18 h -0.459 v -1.18 h -0.745 v 1.18 h -0.459 v -1.18 h -0.745 v 1.18 h -0.459 v -1.18 h -0.745 v 1.18 h -0.459 v -1.18 h -0.746 v 1.18 h -0.458 v -1.18 h -0.746 v 1.18 h -0.459 v -1.18 h -0.745 v 1.18 h -0.459 v -1.18 h -0.745 v 1.18 h -0.459 v -1.18 h -0.746 v 1.18 h -0.459 v -1.18 h -0.746 v 1.18 h -0.458 v -1.18 h -0.746 v 1.18 h -0.459 v -1.18 h -1.261 v 3.229 h -6.538 v -2.08 h -0.229 v -1.149 h -0.745 v 1.149 h -0.459 v -1.149 h -0.746 v 1.149 h -0.458 v -1.149 h -0.746 v 1.149 h -0.459 v -1.149 h -0.745 v 1.149 h -0.459 v -1.149 h -0.746 v 1.149 h -0.459 v -1.149 h -0.745 v 1.149 h -0.459 v -1.149 h -0.746 v 1.149 h -0.458 v -1.149 h -0.746 v 1.149 h -0.458 v -1.149 h -0.746 v 1.149 h -0.459 v -1.149 h -0.745 v 1.149 h -0.459 v -1.149 h -0.745 v 1.149 h -0.459 v -1.149 h -0.745 v 1.149 h -0.459 v -1.149 h -0.746 v 1.149 h -0.458 v -1.149 h -0.746 v 1.149 h -0.459 v -1.149 h -0.746 v 1.149 h -0.459 v -1.149 h -0.745 v 1.149 h -0.459 v -1.149 h -0.745 v 1.149 h -0.459 v -1.149 h -0.746 v 1.149 h -0.458 v -1.149 h -0.746 v 1.149 h -0.459 v -1.149 h -0.745 v 1.149 h -0.459 v -1.149 h -0.745 v 1.149 h -0.459 v -1.149 h -0.745 v 1.149 h -0.459 v -1.149 h -0.746 v 1.149 h -0.458 v -1.149 h -0.746 v 1.149 h -0.459 v -1.149 h -0.746 v 1.149 h -0.458 v -1.149 h -0.746 v 1.149 h -0.459 v -1.149 h -0.745 v 1.149 h -0.459 v -1.149 h -0.435 -0.539 v 3.229 h -0.723 -5.815 -0.723 v -3.229 h -0.344 v 1.18 h -0.459 v -1.18 h -0.745 v 1.18 h -0.459 v -1.18 h -0.746 v 1.18 h -0.458 v -1.18 h -0.746 v 1.18 h -0.459 v -1.18 h -0.745 v 1.18 h -0.459 v -1.18 h -0.745 v 1.18 h -0.459 v -1.18 h -0.745 v 1.18 h -0.459 v -1.18 h -0.746 v 1.18 h -0.458 v -1.18 h -0.747 v 1.18 h -0.459 v -1.18 h -0.745 v 1.18 h -0.459 v -1.18 h -0.745 v 1.18 h -0.459 v -1.18 h -0.745 v 1.18 h -0.459 v -1.18 h -0.746 v 1.18 h -0.458 v -1.18 h -0.746 v 1.18 h -0.459 v -1.18 h -0.745 v 1.18 h -0.459 v -1.18 h -0.745 v 1.18 h -0.459 v -1.18 h -0.745 v 1.18 h -0.459 v -1.18 h -0.746 v 1.18 h -0.458 v -1.18 h -0.747 v 1.18 h -0.459 v -1.18 h -0.745 v 1.18 h -0.459 v -1.18 h -0.745 v 1.18 h -0.459 v -1.18 h -0.745 v 1.18 h -0.459 v -1.18 h -0.746 v 1.18 h -0.458 v -1.18 h -0.746 v 1.18 h -0.459 v -1.18 h -0.745 v 1.18 h -0.459 v -1.18 h -0.745 v 1.18 h -0.459 v -1.18 h -0.745 v 1.18 h -0.459 v -1.18 h -0.746 v 1.18 h -0.458 v -1.18 h -0.746 v 1.18 h -0.459 v -1.18 h -0.344 v 3.229 h -6.537 v -3.229 h -1.148 v 1.18 h -0.459 v -1.18 h -0.745 v 1.18 h -0.459 v -1.18 h -0.745 v 1.18 h -0.459 v -1.18 h -0.745 v 1.18 h -0.459 v -1.18 h -0.746 v 1.18 h -0.458 v -1.18 h -0.746 v 1.18 h -0.459 v -1.18 h -0.745 v 1.18 h -0.459 v -1.18 h -0.745 v 1.18 h -0.459 v -1.18 h -0.746 v 1.18 h -0.459 v -1.18 h -0.746 v 1.18 h -0.458 v -1.18 h -0.746 v 1.18 h -0.459 v -1.18 h -0.745 v 1.18 h -0.459 v -1.18 h -0.745 v 1.18 h -0.459 v -1.18 h -0.746 v 1.18 h -0.458 v -1.18 h -0.746 v 1.18 h -0.459 v -1.18 h -0.745 v 1.18 h -0.459 v -1.18 h -0.745 v 1.18 h -0.459 v -1.18 h -0.745 v 1.18 h -0.459 v -1.18 h -0.746 v 1.18 h -0.459 v -1.18 h -0.745 v 1.18 h -0.459 v -1.18 h -0.745 v 1.18 h -0.459 v -1.18 h -0.746 v 1.18 h -0.458 v -1.18 h -0.746 v 1.18 h -0.459 v -1.18 h -0.746 v 1.18 h -0.458 v -1.18 h -0.746 v 1.18 h -0.459 v -1.18 h -0.745 v 1.18 h -0.459 v -1.18 h -0.745 v 1.18 h -0.459 v -1.18 h -0.745 v 1.18 h -0.459 v -1.18 h -0.746 v 1.18 h -0.459 v -1.18 h -1.261 v 3.229 h -6.538 v -2.08 h -0.229 v -1.149 h -0.746 v 1.149 h -0.458 v -1.149 h -0.746 v 1.149 h -0.459 v -1.149 h -0.745 v 1.149 h -0.459 v -1.149 h -0.746 v 1.149 h -0.458 v -1.149 h -0.746 v 1.149 h -0.459 v -1.149 h -0.745 v 1.149 h -0.459 v -1.149 h -0.746 v 1.149 h -0.458 v -1.149 h -0.746 v 1.149 h -0.459 v -1.149 h -0.745 v 1.149 h -0.459 v -1.149 h -0.745 v 1.149 h -0.459 v -1.149 h -0.746 v 1.149 h -0.458 v -1.149 h -0.746 v 1.149 h -0.459 v -1.149 h -0.745 v 1.149 h -0.459 v -1.149 h -0.746 v 1.149 h -0.458 v -1.149 h -0.746 v 1.149 h -0.459 v -1.149 h -0.745 v 1.149 h -0.459 v -1.149 h -0.745 v 1.149 h -0.459 v -1.149 h -0.746 v 1.149 h -0.459 v -1.149 h -0.745 v 1.149 h -0.459 v -1.149 h -0.745 v 1.149 h -0.459 v -1.149 h -0.745 v 1.149 h -0.459 v -1.149 h -0.746 v 1.149 h -0.458 v -1.149 h -0.746 v 1.149 h -0.459 v -1.149 h -0.746 v 1.149 h -0.458 v -1.149 h -0.746 v 1.149 h -0.459 v -1.149 h -0.745 v 1.149 h -0.459 v -1.149 h -0.745 v 1.149 h -0.459 v -1.149 h -0.694 -0.281 v 3.229 h -0.981 -5.557 -0.98 v -3.229 h -0.281 -0.063 v 1.18 h -0.459 v -1.18 h -0.745 v 1.18 h -0.459 v -1.18 h -0.746 v 1.18 h -0.459 v -1.18 h -0.745 v 1.18 h -0.459 v -1.18 h -0.745 v 1.18 h -0.459 v -1.18 h -0.746 v 1.18 h -0.458 v -1.18 h -0.746 v 1.18 h -0.458 v -1.18 h -0.746 v 1.18 h -0.459 v -1.18 h -0.746 v 1.18 h -0.458 v -1.18 h -0.746 v 1.18 h -0.459 v -1.18 h -0.745 v 1.18 h -0.459 v -1.18 h -0.745 v 1.18 h -0.459 v -1.18 h -0.746 v 1.18 h -0.458 v -1.18 h -0.746 v 1.18 h -0.459 v -1.18 h -0.745 v 1.18 h -0.459 v -1.18 h -0.745 v 1.18 h -0.459 v -1.18 h -0.746 v 1.18 h -0.458 v -1.18 h -0.746 v 1.18 h -0.459 v -1.18 h -0.746 v 1.18 h -0.458 v -1.18 h -0.746 v 1.18 h -0.459 v -1.18 h -0.745 v 1.18 h -0.459 v -1.18 h -0.745 v 1.18 h -0.459 v -1.18 h -0.745 v 1.18 h -0.459 v -1.18 h -0.746 v 1.18 h -0.459 v -1.18 h -0.745 v 1.18 h -0.459 v -1.18 h -0.745 v 1.18 h -0.459 v -1.18 h -0.746 v 1.18 h -0.458 v -1.18 h -0.746 v 1.18 h -0.459 v -1.18 h -0.746 v 1.18 h -0.458 v -1.18 h -0.344 v 3.229 h -6.538 v -3.229 h -1.147 v 1.18 h -0.458 v -1.18 h -0.746 v 1.18 h -0.459 v -1.18 h -0.746 v 1.18 h -0.458 v -1.18 h -0.746 v 1.18 h -0.458 v -1.18 h -0.746 v 1.18 h -0.459 v -1.18 h -0.745 v 1.18 h -0.459 v -1.18 h -0.745 v 1.18 h -0.459 v -1.18 h -0.746 v 1.18 h -0.459 v -1.18 h -0.745 v 1.18 h -0.459 v -1.18 h -0.745 v 1.18 h -0.459 v -1.18 h -0.746 v 1.18 h -0.458 v -1.18 h -0.746 v 1.18 h -0.459 v -1.18 h -0.745 v 1.18 h -0.459 v -1.18 h -0.746 v 1.18 h -0.458 v -1.18 h -0.746 v 1.18 h -0.459 v -1.18 h -0.745 v 1.18 h -0.459 v -1.18 h -0.745 v 1.18 h -0.459 v -1.18 h -0.746 v 1.18 h -0.459 v -1.18 h -0.745 v 1.18 h -0.459 v -1.18 h -0.745 v 1.18 h -0.459 v -1.18 h -0.746 v 1.18 h -0.458 v -1.18 h -0.746 v 1.18 h -0.459 v -1.18 h -0.745 v 1.18 h -0.459 v -1.18 h -0.746 v 1.18 h -0.458 v -1.18 h -0.746 v 1.18 h -0.459 v -1.18 h -0.745 v 1.18 h -0.459 v -1.18 h -0.745 v 1.18 h -0.459 v -1.18 h -0.745 v 1.18 h -0.459 v -1.18 h -0.746 v 1.18 h -0.459 v -1.18 h -1.261 v 3.229 h -6.538 v -2.08 h -0.229 v -1.149 h -0.746 v 1.149 h -0.458 v -1.149 h -0.746 v 1.149 h -0.459 v -1.149 h -0.746 v 1.149 h -0.458 v -1.149 h -0.746 v 1.149 h -0.458 v -1.149 h -0.746 v 1.149 h -0.459 v -1.149 h -0.745 v 1.149 h -0.459 v -1.149 h -0.746 v 1.149 h -0.459 v -1.149 h -0.745 v 1.149 h -0.459 v -1.149 h -0.745 v 1.149 h -0.459 v -1.149 h -0.745 v 1.149 h -0.459 v -1.149 h -0.746 v 1.149 h -0.458 v -1.149 h -0.746 v 1.149 h -0.459 v -1.149 h -0.745 v 1.149 h -0.459 v -1.149 h -0.746 v 1.149 h -0.458 v -1.149 h -0.746 v 1.149 h -0.459 v -1.149 h -0.745 v 1.149 h -0.459 v -1.149 h -0.746 v 1.149 h -0.459 v -1.149 h -0.745 v 1.149 h -0.459 v -1.149 h -0.745 v 1.149 h -0.459 v -1.149 h -0.745 v 1.149 h -0.459 v -1.149 h -0.746 v 1.149 h -0.458 v -1.149 h -0.746 v 1.149 h -0.459 v -1.149 h -0.745 v 1.149 h -0.459 v -1.149 h -0.746 v 1.149 h -0.458 v -1.149 h -0.746 v 1.149 h -0.459 v -1.149 h -0.745 v 1.149 h -0.459 v -1.149 h -0.746 v 1.149 h -0.458 v -1.149 h -0.975 v 3.229 h -6.538 v -3.229 h -1.261 v -27.44 h 8.91 c -0.69,1.395 -1.082,2.91 -1.082,4.501 0,3.311 1.653,6.312 4.329,8.526 v -0.643 h 0.459 v 0.777 h 0.745 v -0.777 h 0.459 v 0.777 h 0.746 v -0.777 h 0.458 v 0.777 h 0.746 v -0.777 h 0.459 v 0.777 h 0.745 v -0.777 h 0.459 v 0.777 h 0.746 v -0.777 h 0.458 v 0.777 h 0.746 v -0.777 h 0.459 v 0.777 h 0.745 v -0.777 h 0.459 v 0.777 h 0.746 v -0.777 h 0.459 v 0.777 h 0.745 v -0.777 h 0.459 v 0.777 h 0.745 v -0.777 h 0.459 v 0.777 h 0.745 v -0.777 h 0.459 v 0.777 h 0.746 v -0.777 h 0.458 v 0.777 h 0.746 v -0.777 h 0.459 v 0.777 h 0.745 v -0.777 h 0.459 v 0.777 h 0.746 v -0.777 h 0.458 v 0.777 h 0.746 v -0.777 h 0.459 v 0.777 h 0.745 v -0.777 h 0.459 v 0.777 h 0.746 v -0.777 h 0.458 v 0.777 h 0.077 c 0.233,-0.188 0.451,-0.386 0.669,-0.584 v -0.193 h 0.219 c 2.243,-2.136 3.595,-4.883 3.595,-7.883 0,-1.591 -0.393,-3.106 -1.083,-4.501 h 14.724 c -0.69,1.395 -1.082,2.91 -1.082,4.501 0,3.141 1.492,5.999 3.928,8.175 v -0.292 h 0.458 v 0.694 c 0.034,0.026 0.062,0.056 0.096,0.083 h 0.65 v -0.777 h 0.459 v 0.777 h 0.745 v -0.777 h 0.459 v 0.777 h 0.746 v -0.777 h 0.458 v 0.777 h 0.746 v -0.777 h 0.459 v 0.777 h 0.745 v -0.777 h 0.459 v 0.777 h 0.745 v -0.777 h 0.459 v 0.777 h 0.746 v -0.777 h 0.459 v 0.777 h 0.745 v -0.777 h 0.459 v 0.777 h 0.745 v -0.777 h 0.459 v 0.777 h 0.746 v -0.777 h 0.458 v 0.777 h 0.746 v -0.777 h 0.459 v 0.777 h 0.745 v -0.777 h 0.459 v 0.777 h 0.746 v -0.777 h 0.458 v 0.777 h 0.746 v -0.777 h 0.459 v 0.777 h 0.745 v -0.777 h 0.459 v 0.777 h 0.745 v -0.777 h 0.459 v 0.777 h 0.746 v -0.777 h 0.459 v 0.777 h 0.745 v -0.777 h 0.459 v 0.777 h 0.478 c 0.093,-0.075 0.176,-0.157 0.267,-0.234 v -0.543 h 0.459 v 0.142 c 2.336,-2.157 3.756,-4.957 3.756,-8.025 0,-1.591 -0.392,-3.106 -1.082,-4.501 h 14.724 c -0.69,1.395 -1.083,2.91 -1.083,4.501 0,3.166 1.516,6.044 3.986,8.226 v -0.343 h 0.459 v 0.744 c 0.013,0.01 0.024,0.022 0.038,0.033 h 0.707 v -0.777 h 0.459 v 0.777 h 0.746 v -0.777 h 0.458 v 0.777 h 0.746 v -0.777 h 0.459 v 0.777 h 0.745 v -0.777 h 0.459 v 0.777 h 0.746 v -0.777 h 0.458 v 0.777 h 0.746 v -0.777 h 0.459 v 0.777 h 0.745 v -0.777 h 0.459 v 0.777 h 0.745 v -0.777 h 0.459 v 0.777 h 0.746 v -0.777 h 0.458 v 0.777 h 0.746 v -0.777 h 0.458 v 0.777 h 0.746 v -0.777 h 0.459 v 0.777 h 0.746 v -0.777 h 0.458 v 0.777 h 0.746 v -0.777 h 0.459 v 0.777 h 0.745 v -0.777 h 0.459 v 0.777 h 0.745 v -0.777 h 0.459 v 0.777 h 0.746 v -0.777 h 0.459 v 0.777 h 0.745 v -0.777 h 0.459 v 0.777 h 0.745 v -0.777 h 0.459 v 0.777 h 0.421 c 0.113,-0.091 0.215,-0.191 0.324,-0.284 v -0.493 h 0.459 v 0.092 c 1.73,-1.615 2.948,-3.586 3.447,-5.758 v -4.378 c -0.184,-0.809 -0.461,-1.593 -0.83,-2.34 h 0.83 8.08 0.83 c -0.369,0.747 -0.646,1.531 -0.83,2.34 v 4.325 c 0.55,2.446 1.999,4.643 4.077,6.362 v -0.643 h 0.459 v 0.777 h 0.745 v -0.777 h 0.459 v 0.777 h 0.746 v -0.777 h 0.459 v 0.777 h 0.745 v -0.777 h 0.459 v 0.777 h 0.746 v -0.777 h 0.458 v 0.777 h 0.746 v -0.777 h 0.458 v 0.777 h 0.746 v -0.777 h 0.459 v 0.777 h 0.746 v -0.777 h 0.458 v 0.777 h 0.746 v -0.777 h 0.459 v 0.777 h 0.745 v -0.777 h 0.459 v 0.777 h 0.745 v -0.777 h 0.459 v 0.777 h 0.745 v -0.777 h 0.459 v 0.777 h 0.746 v -0.777 h 0.459 v 0.777 h 0.745 v -0.777 h 0.459 v 0.777 h 0.745 v -0.777 h 0.459 v 0.777 h 0.746 v -0.777 h 0.458 v 0.777 h 0.746 v -0.777 h 0.459 v 0.777 h 0.746 v -0.777 h 0.458 v 0.777 h 0.746 v -0.777 h 0.459 v 0.777 h 0.076 c 0.233,-0.188 0.451,-0.386 0.669,-0.584 v -0.193 h 0.219 c 2.243,-2.136 3.595,-4.883 3.595,-7.883 0,-1.591 -0.392,-3.106 -1.083,-4.501 h 14.724 c -0.69,1.395 -1.082,2.91 -1.082,4.501 0,3.141 1.492,5.999 3.928,8.175 v -0.292 h 0.458 v 0.694 c 0.034,0.026 0.063,0.056 0.096,0.083 h 0.65 v -0.777 h 0.459 v 0.777 h 0.746 v -0.777 h 0.458 v 0.777 h 0.746 v -0.777 h 0.459 v 0.777 h 0.745 v -0.777 h 0.459 v 0.777 h 0.745 v -0.777 h 0.459 v 0.777 h 0.746 v -0.777 h 0.459 v 0.777 h 0.745 v -0.777 h 0.459 v 0.777 h 0.745 v -0.777 h 0.459 v 0.777 h 0.745 v -0.777 h 0.459 v 0.777 h 0.746 v -0.777 h 0.458 v 0.777 h 0.746 v -0.777 h 0.459 v 0.777 h 0.745 v -0.777 h 0.459 v 0.777 h 0.745 v -0.777 h 0.459 v 0.777 h 0.746 v -0.777 h 0.458 v 0.777 h 0.746 v -0.777 h 0.459 v 0.777 h 0.746 v -0.777 h 0.459 v 0.777 h 0.745 v -0.777 h 0.459 v 0.777 h 0.745 v -0.777 h 0.459 v 0.777 h 0.478 c 0.093,-0.075 0.177,-0.157 0.268,-0.234 v -0.543 h 0.458 v 0.142 c 2.336,-2.157 3.757,-4.957 3.757,-8.025 0,-1.591 -0.393,-3.106 -1.083,-4.501 h 14.724 c -0.69,1.395 -1.083,2.91 -1.083,4.501 0,3.166 1.516,6.044 3.987,8.226 v -0.343 h 0.458 v 0.744 c 0.013,0.01 0.025,0.022 0.038,0.033 h 0.708 v -0.777 h 0.459 v 0.777 h 0.745 v -0.777 h 0.459 v 0.777 h 0.745 v -0.777 h 0.459 v 0.777 h 0.745 v -0.777 h 0.459 v 0.777 h 0.746 v -0.777 h 0.458 v 0.777 h 0.746 v -0.777 h 0.459 v 0.777 h 0.745 v -0.777 h 0.459 v 0.777 h 0.745 v -0.777 h 0.459 v 0.777 h 0.745 v -0.777 h 0.459 v 0.777 h 0.747 v -0.777 h 0.458 v 0.777 h 0.746 v -0.777 h 0.459 v 0.777 h 0.745 v -0.777 h 0.459 v 0.777 h 0.745 v -0.777 h 0.459 v 0.777 h 0.745 v -0.777 h 0.459 v 0.777 h 0.746 v -0.777 h 0.458 v 0.777 h 0.746 v -0.777 h 0.458 v 0.777 h 0.746 v -0.777 h 0.459 v 0.777 h 0.745 v -0.777 h 0.459 v 0.777 h 0.421 c 0.113,-0.091 0.215,-0.191 0.324,-0.284 v -0.493 h 0.459 v 0.092 c 1.489,-1.389 2.59,-3.046 3.189,-4.863 v -6.181 c -0.16,-0.488 -0.343,-0.968 -0.572,-1.432 h 0.572 8.339 0.572 c -0.229,0.464 -0.413,0.944 -0.572,1.433 v 6.151 c 0.677,2.075 2.005,3.942 3.818,5.443 v -0.643 h 0.459 v 0.777 h 0.746 v -0.777 h 0.458 v 0.777 h 0.746 v -0.777 h 0.459 v 0.777 h 0.745 v -0.777 h 0.459 v 0.777 h 0.746 v -0.777 h 0.458 v 0.777 h 0.746 v -0.777 h 0.459 v 0.777 h 0.746 v -0.777 h 0.458 v 0.777 h 0.746 v -0.777 h 0.459 v 0.777 h 0.745 v -0.777 h 0.459 v 0.777 h 0.745 v -0.777 h 0.459 v 0.777 h 0.745 v -0.777 h 0.459 v 0.777 h 0.746 v -0.777 h 0.458 v 0.777 h 0.746 v -0.777 h 0.459 v 0.777 h 0.745 v -0.777 h 0.459 v 0.777 h 0.745 v -0.777 h 0.459 v 0.777 h 0.746 v -0.777 h 0.459 v 0.777 h 0.746 v -0.777 h 0.458 v 0.777 h 0.746 v -0.777 h 0.459 v 0.777 h 0.745 v -0.777 h 0.459 v 0.777 h 0.076 c 0.233,-0.188 0.451,-0.386 0.669,-0.584 v -0.193 h 0.219 c 2.243,-2.136 3.594,-4.883 3.594,-7.883 0,-1.591 -0.391,-3.106 -1.082,-4.501 h 14.725 c -0.691,1.395 -1.083,2.91 -1.083,4.501 0,3.141 1.492,5.999 3.928,8.175 v -0.292 h 0.459 v 0.694 c 0.033,0.026 0.062,0.056 0.095,0.083 h 0.651 v -0.777 h 0.458 v 0.777 h 0.746 v -0.777 h 0.459 v 0.777 h 0.745 v -0.777 h 0.459 v 0.777 h 0.745 v -0.777 h 0.459 v 0.777 h 0.745 v -0.777 h 0.459 v 0.777 h 0.745 v -0.777 h 0.459 v 0.777 h 0.746 v -0.777 h 0.459 v 0.777 h 0.746 v -0.777 h 0.458 v 0.777 h 0.746 v -0.777 h 0.459 v 0.777 h 0.745 v -0.777 h 0.459 v 0.777 h 0.745 v -0.777 h 0.459 v 0.777 h 0.746 v -0.777 h 0.459 v 0.777 h 0.745 v -0.777 h 0.459 v 0.777 h 0.745 v -0.777 h 0.459 v 0.777 h 0.745 v -0.777 h 0.459 v 0.777 h 0.745 v -0.777 h 0.459 v 0.777 h 0.746 v -0.777 h 0.458 v 0.777 h 0.746 v -0.777 h 0.459 v 0.777 h 0.478 c 0.094,-0.075 0.177,-0.157 0.268,-0.234 v -0.543 h 0.459 v 0.142 c 2.335,-2.157 3.755,-4.957 3.755,-8.025 0,-1.591 -0.391,-3.106 -1.083,-4.501 h 14.725 c -0.69,1.395 -1.082,2.91 -1.082,4.501 0,3.166 1.516,6.044 3.985,8.226 v -0.343 h 0.459 v 0.744 c 0.013,0.01 0.025,0.022 0.038,0.033 h 0.707 v -0.777 h 0.459 v 0.777 h 0.746 v -0.777 h 0.459 v 0.777 h 0.746 v -0.777 h 0.458 v 0.777 h 0.746 v -0.777 h 0.459 v 0.777 h 0.745 v -0.777 h 0.459 v 0.777 h 0.745 v -0.777 h 0.459 v 0.777 h 0.745 v -0.777 h 0.459 v 0.777 h 0.746 v -0.777 h 0.458 v 0.777 h 0.746 v -0.777 h 0.459 v 0.777 h 0.745 v -0.777 h 0.459 v 0.777 h 0.745 v -0.777 h 0.459 v 0.777 h 0.746 v -0.777 h 0.459 v 0.777 h 0.746 v -0.777 h 0.458 v 0.777 h 0.746 v -0.777 h 0.459 v 0.777 h 0.745 v -0.777 h 0.459 v 0.777 h 0.745 v -0.777 h 0.459 v 0.777 H 0 v -0.777 h 0.459 v 0.777 h 0.746 v -0.777 h 0.458 v 0.777 H 2.084 C 2.197,-1.333 2.3,-1.433 2.409,-1.526 v -0.493 h 0.459 v 0.092 c 2.302,-2.15 3.698,-4.931 3.698,-7.975 0,-1.591 -0.391,-3.106 -1.083,-4.501 h 8.912 v 27.44 z"
             style="fill:#ff8b8b;fill-opacity:1;fill-rule:nonzero;stroke:none"
             id="path460"
             inkscape:connector-curvature="0" /></g><path
           d="M 454.815,119.014 H 43.568 v 5.025 h 411.247 z"
           style="fill:#ff8b8b;fill-opacity:1;fill-rule:nonzero;stroke:none"
           id="path462"
           inkscape:connector-curvature="0" /></g></g><g
       id="g464" /></g></svg>