<?xml version="1.0" encoding="UTF-8" standalone="no"?>
<!-- Created with Inkscape (http://www.inkscape.org/) -->

<svg
   xmlns:dc="http://purl.org/dc/elements/1.1/"
   xmlns:cc="http://creativecommons.org/ns#"
   xmlns:rdf="http://www.w3.org/1999/02/22-rdf-syntax-ns#"
   xmlns:svg="http://www.w3.org/2000/svg"
   xmlns="http://www.w3.org/2000/svg"
   xmlns:sodipodi="http://sodipodi.sourceforge.net/DTD/sodipodi-0.dtd"
   xmlns:inkscape="http://www.inkscape.org/namespaces/inkscape"
   width="570"
   height="160"
   viewBox="0 0 150.8125 42.333335"
   version="1.1"
   id="svg1808"
   inkscape:version="0.92.5 (2060ec1f9f, 2020-04-08)"
   sodipodi:docname="sophire_logo.svg">
  <defs
     id="defs1802" />
  <sodipodi:namedview
     id="base"
     pagecolor="#ffffff"
     bordercolor="#666666"
     borderopacity="1.0"
     inkscape:pageopacity="0.0"
     inkscape:pageshadow="2"
     inkscape:zoom="0.90509668"
     inkscape:cx="317.70061"
     inkscape:cy="239.37351"
     inkscape:document-units="mm"
     inkscape:current-layer="layer1"
     showgrid="false"
     units="px"
     showguides="true"
     inkscape:guide-bbox="true"
     inkscape:snap-others="false"
     inkscape:snap-nodes="false"
     inkscape:window-width="1366"
     inkscape:window-height="732"
     inkscape:window-x="0"
     inkscape:window-y="0"
     inkscape:window-maximized="1">
    <sodipodi:guide
       position="98.889723,21.114294"
       orientation="0,1"
       id="guide2379"
       inkscape:locked="false" />
  </sodipodi:namedview>
  <metadata
     id="metadata1805">
    <rdf:RDF>
      <cc:Work
         rdf:about="">
        <dc:format>image/svg+xml</dc:format>
        <dc:type
           rdf:resource="http://purl.org/dc/dcmitype/StillImage" />
        <dc:title></dc:title>
      </cc:Work>
    </rdf:RDF>
  </metadata>
  <g
     inkscape:label="Layer 1"
     inkscape:groupmode="layer"
     id="layer1"
     transform="translate(0,-254.66665)">
    <g
       id="g20"
       transform="matrix(0.35277777,0,0,-0.35277777,35.164813,268.89749)">
      <path
         d="M 16.346736,9.3955131 C 16.026542,12.642665 15.210359,15.894838 13.844194,19.050327 6.7660064,35.406628 -12.232217,42.928066 -28.588517,35.849879 -36.98641,32.215981 -43.047509,25.436643 -46.007113,17.488278 c -7.820286,3.283566 -16.910049,3.50582 -25.307943,-0.128078 -16.357556,-7.078187 -23.878989,-26.0764097 -16.800807,-42.432711 0.78228,-1.806903 1.716495,-3.498285 2.768743,-5.080424 0,0 16.471823,-30.319305 75.102622,-35.374615 l 0.02135,-0.04646 c 0.0113,0.01382 0.02135,0.02763 0.03265,0.04143 0.01758,-0.0013 0.03516,-0.0038 0.05274,-0.005 l -0.0201,0.04771 c 28.87278,36.597607 28.08171,64.75842182 26.504594,74.8853661"
         style="fill:#ff7591;fill-opacity:1;fill-rule:nonzero;stroke:none;stroke-width:1.25566566"
         id="path22"
         inkscape:connector-curvature="0" />
      <g
         id="g116"
         transform="matrix(1.2513308,-0.10424832,0.10424832,1.2513308,6.1839279,-54.227901)">
        <path
           d="M 0,0 C -0.14,0.212 -0.314,0.406 -0.522,0.573 -1.603,1.441 -3.183,1.27 -4.051,0.189 -4.497,-0.366 -4.667,-1.052 -4.583,-1.706 -5.24,-1.764 -5.874,-2.079 -6.319,-2.633 c -0.868,-1.08 -0.697,-2.66 0.384,-3.529 0.119,-0.095 0.245,-0.178 0.375,-0.249 0,0 2.233,-1.487 6.449,0.292 l 0.004,-0.002 c 0,0.001 0,0.003 0,0.004 0.002,0 0.003,0.001 0.004,0.002 L 0.894,-6.113 C 1.552,-2.548 0.476,-0.64 0,0"
           style="fill:#ff5c7d;fill-opacity:1;fill-rule:nonzero;stroke:none"
           id="path118"
           inkscape:connector-curvature="0" />
      </g>
      <g
         id="g96"
         transform="matrix(1.2556657,0,0,1.2556657,-70.182172,-59.98353)">
        <path
           d="m 17.841444,-1.0392491 c 0.05198,0.1049913 0.08955,0.2194882 0.107846,0.3423264 0.09747,0.6355727 -0.337653,1.23142505 -0.973623,1.32797741 -0.327039,0.0500155 -0.64224,-0.0412979 -0.885035,-0.22714874 -0.175976,0.25050689 -0.449365,0.43203182 -0.775486,0.48165016 -0.636093,0.098785 -1.230507,-0.33805005 -1.327977,-0.97362273 -0.01129,-0.071391 -0.01508,-0.1405761 -0.01269,-0.2080766 0,0 -0.07824,-1.2432001 1.616958,-2.5228101 l -7.94e-4,-0.00184 c 9.17e-4,-3.972e-4 0.0013,5.206e-4 0.0022,1.234e-4 l 0.0018,-7.945e-4 -1.24e-4,0.00223 c 1.584401,0.5640777 2.100813,1.4400205 2.24686,1.7799781"
           style="fill:#ff7591;fill-opacity:1;fill-rule:nonzero;stroke:none"
           id="path98"
           inkscape:connector-curvature="0" />
        <g
           id="g100"
           transform="matrix(0.26053892,0.37297503,-0.37297503,0.26053892,27.52107,-3.134836)">
          <path
             d="m -5.1058901,-1.849436 c 0.5385672,0.021047 1.0822068,0.1235018 1.6153014,0.3181403 2.76442108,1.00634803 4.18901408,4.0643916 3.18266608,6.8288124 -0.5172321,1.419189 -1.57510788,2.484127 -2.85579698,3.048514 0.6174247,1.256772 0.7430722,2.7529713 0.22584,4.1721603 -1.0069492,2.76522 -4.0643915,4.189014 -6.8288125,3.182666 -0.3050249,-0.11188 -0.5928109,-0.248332 -0.8643619,-0.40636 0,0 -5.156403,-2.41951 -6.561892,-12.0309323 l -0.0076,-0.00321 0.007,-0.00599 c -3.96e-4,-0.0028 -7.92e-4,-0.0056 -0.002,-0.009 l 0.009,0.00301 c 5.74825,-5.1145678 10.3968819,-5.2584585 12.0806319,-5.0978108"
             style="fill:#ff5c7d;fill-opacity:1;fill-rule:nonzero;stroke:none"
             id="path102"
             inkscape:connector-curvature="0" />
          <path
             d="m 81.240957,-59.910182 c 0.607618,0.343625 1.174325,0.78672 1.673192,1.326928 2.589191,2.806229 2.414402,7.178817 -0.389721,9.767272 -1.440048,1.329401 -3.292745,1.928728 -5.105646,1.819622 -0.03489,1.81535 -0.781393,3.615683 -2.221442,4.945078 -2.804806,2.589877 -7.177391,2.415095 -9.76585,-0.389033 -0.286425,-0.311588 -0.536373,-0.640659 -0.755434,-0.982901 0,0 -4.508708,-5.856096 -0.414858,-17.776404 l -0.0065,-0.0085 c 0.0041,-0.0015 0.0063,-0.0024 0.0106,-0.0039 9.79e-4,-0.0031 0.0013,-0.006 0.0029,-0.0091 l 0.0085,0.0076 c 9.670833,-2.481268 15.118053,0.117121 16.96438,1.303061"
             style="fill:#db4f6b;fill-opacity:1;fill-rule:nonzero;stroke:none;stroke-width:1.57947528"
             id="path122"
             inkscape:connector-curvature="0" />
        </g>
      </g>
      <path
         d="m -10.651866,-68.714198 c -0.115132,0.168584 -0.25822,0.322365 -0.427626,0.454763 -0.880746,0.684203 -2.148823,0.524665 -2.833024,-0.35608 -0.351972,-0.452297 -0.480258,-1.006567 -0.403779,-1.531232 -0.527131,-0.05591 -1.03206,-0.316607 -1.384029,-0.768903 -0.684202,-0.879925 -0.524665,-2.148823 0.355258,-2.833025 0.09787,-0.07565 0.199834,-0.139801 0.305095,-0.1949 0,0 1.815768,-1.167748 5.1841476,0.319077 l 0.0025,-0.0017 c 0,8.2e-4 8.02e-4,0.0017 8.02e-4,0.0033 8.02e-4,0 0.0017,8.2e-4 0.0033,8.2e-4 l -0.0025,0.0025 c 0.481942,2.876615 -0.4086716,4.397157 -0.8001146,4.905374"
         style="fill:#ff5c7d;fill-opacity:1;fill-rule:nonzero;stroke:none;stroke-width:0.82235819"
         id="path70"
         inkscape:connector-curvature="0" />
      <path
         d="m -18.884414,-71.104165 c 0.134487,0.36067 0.217828,0.747527 0.236877,1.15224 0.102363,2.099741 -1.518863,3.884045 -3.618606,3.985223 -1.078438,0.05237 -2.073554,-0.349956 -2.799654,-1.037968 -0.657062,0.75467 -1.608137,1.251038 -2.686575,1.303412 -2.099741,0.101182 -3.884044,-1.51886 -3.985222,-3.619792 -0.0118,-0.230923 -0.0012,-0.459468 0.02859,-0.680869 0,0 0.166635,-4.067356 6.112341,-7.652627 v -0.006 c 0.0012,0 0.0034,0.0012 0.0048,0.0024 0.0024,-0.0012 0.0036,-0.0024 0.006,-0.0034 v 0.006 c 4.961295,2.373487 6.342077,5.396921 6.701557,6.551541"
         style="fill:#ff5c7d;fill-opacity:1;fill-rule:nonzero;stroke:none;stroke-width:1.19032955"
         id="path66"
         inkscape:connector-curvature="0" />
      <path
         d="m -7.7001984,-78.68582 c 0.109243,-0.115522 0.23732,-0.217231 0.384233,-0.29885 0.760934,-0.419392 1.7190063,-0.1444 2.1384003,0.616532 0.215974,0.390513 0.248622,0.832506 0.125566,1.228042 0.399302,0.105481 0.757166,0.36791 0.97314,0.758422 0.420649,0.760933 0.145657,1.719007 -0.615275,2.139654 -0.08413,0.04645 -0.170771,0.08288 -0.258668,0.113009 0,0 -1.5394463,0.679316 -3.9528353,-0.872686 l -0.0025,0.0012 v -0.0025 c -0.0013,0 -0.0013,-0.0013 -0.0025,-0.0013 l 0.0025,-0.0012 c -0.02386,-2.272755 0.845063,-3.336304 1.207951,-3.680356"
         style="fill:#ff5c7d;fill-opacity:1;fill-rule:nonzero;stroke:none;stroke-width:1.25566566"
         id="path74"
         inkscape:connector-curvature="0" />
      <path
         d="m 0.09216111,-67.035605 c 0.050487,0.178045 0.074886,0.366304 0.068222,0.560499 -0.034608,1.0093 -0.8799389,1.800256 -1.88923871,1.765654 -0.518356,-0.01757 -0.977856,-0.249757 -1.2989682,-0.60696 -0.3442778,0.335124 -0.8194943,0.535409 -1.3368263,0.517765 -1.008746,-0.03413 -1.7997023,-0.879461 -1.7656533,-1.889236 0.0041,-0.110851 0.01819,-0.21985 0.04077,-0.32536 0,0 0.2404043,-1.939451 3.226257,-3.421346 l 7.577e-4,-0.0032 c 5.525e-4,4.74e-4 0.00166,0.0015 0.00218,0.0019 9.515e-4,-0.0011 0.00197,-0.0012 0.00301,-0.0012 l -2.84e-4,0.0026 c 2.28078971,1.331088 2.82269151,2.831915 2.94976701,3.398864"
         style="fill:#ff5c7d;fill-opacity:1;fill-rule:nonzero;stroke:none;stroke-width:0.72845024"
         id="path118-3"
         inkscape:connector-curvature="0"
         inkscape:transform-center-x="-1.1660308"
         inkscape:transform-center-y="0.17069626" />
      <path
         d="m 1.9340539,-74.779568 c 0.080272,0.0758 0.150972,0.164679 0.2077191,0.266642 0.2916244,0.528144 0.1011892,1.193551 -0.4269486,1.485176 -0.2710454,0.150179 -0.5779356,0.173078 -0.85264919,0.08786 -0.073022,0.277321 -0.255059,0.525954 -0.5261026,0.676132 -0.5281436,0.292497 -1.1935511,0.102052 -1.48604801,-0.426076 -0.032297,-0.0584 -0.05766,-0.118539 -0.078607,-0.179554 0,0 -0.4725307,-1.068581 0.60383301,-2.745209 l -8.457e-4,-0.0018 0.00176,-10e-7 c 0,-9.3e-4 9.308e-4,-9.3e-4 9.308e-4,-0.0018 l 8.468e-4,0.0018 c 1.5781263,-0.01774 2.31709439,0.584989 2.55618969,0.836782"
         style="fill:#ff5c7d;fill-opacity:1;fill-rule:nonzero;stroke:none;stroke-width:0.87189955"
         id="path74-6"
         inkscape:connector-curvature="0"
         inkscape:transform-center-x="-1.001716"
         inkscape:transform-center-y="8.320143e-06" />
      <text
         xml:space="preserve"
         style="font-style:normal;font-weight:normal;font-size:30px;line-height:1.25;font-family:sans-serif;letter-spacing:0px;word-spacing:0px;fill:#2d2d2d;fill-opacity:1;stroke:none;stroke-width:0.75"
         x="43.943115"
         y="42.891754"
         id="text2536"
         transform="scale(1,-1)"><tspan
           sodipodi:role="line"
           id="tspan2534"
           x="43.943115"
           y="42.891754"
           style="font-style:normal;font-variant:normal;font-weight:normal;font-stretch:normal;font-size:105px;font-family:'Friendly Schoolmates';-inkscape-font-specification:'Friendly Schoolmates';fill:#2d2d2d;fill-opacity:1;stroke-width:0.75">Sophire</tspan></text>
    </g>
  </g>
</svg>
