<?xml version="1.0" encoding="UTF-8" standalone="no"?>
<!-- Created with Inkscape (http://www.inkscape.org/) -->

<svg
   xmlns:dc="http://purl.org/dc/elements/1.1/"
   xmlns:cc="http://creativecommons.org/ns#"
   xmlns:rdf="http://www.w3.org/1999/02/22-rdf-syntax-ns#"
   xmlns:svg="http://www.w3.org/2000/svg"
   xmlns="http://www.w3.org/2000/svg"
   xmlns:sodipodi="http://sodipodi.sourceforge.net/DTD/sodipodi-0.dtd"
   xmlns:inkscape="http://www.inkscape.org/namespaces/inkscape"
   width="170"
   height="169"
   viewBox="0 0 44.979167 44.714589"
   version="1.1"
   id="svg1808"
   inkscape:version="0.92.5 (2060ec1f9f, 2020-04-08)"
   sodipodi:docname="sophire_icon.svg">
  <defs
     id="defs1802" />
  <sodipodi:namedview
     id="base"
     pagecolor="#ffffff"
     bordercolor="#666666"
     borderopacity="1.0"
     inkscape:pageopacity="0.0"
     inkscape:pageshadow="2"
     inkscape:zoom="1.28"
     inkscape:cx="150.79788"
     inkscape:cy="112.41374"
     inkscape:document-units="mm"
     inkscape:current-layer="g20"
     showgrid="false"
     units="px"
     showguides="true"
     inkscape:guide-bbox="true"
     inkscape:snap-others="false"
     inkscape:snap-nodes="false"
     inkscape:window-width="1366"
     inkscape:window-height="732"
     inkscape:window-x="0"
     inkscape:window-y="0"
     inkscape:window-maximized="1">
    <sodipodi:guide
       position="57.877608,22.32422"
       orientation="0,1"
       id="guide2379"
       inkscape:locked="false" />
  </sodipodi:namedview>
  <metadata
     id="metadata1805">
    <rdf:RDF>
      <cc:Work
         rdf:about="">
        <dc:format>image/svg+xml</dc:format>
        <dc:type
           rdf:resource="http://purl.org/dc/dcmitype/StillImage" />
        <dc:title></dc:title>
      </cc:Work>
    </rdf:RDF>
  </metadata>
  <g
     inkscape:label="Layer 1"
     inkscape:groupmode="layer"
     id="layer1"
     transform="translate(0,-252.28536)">
    <g
       id="g20"
       transform="matrix(0.35277777,0,0,-0.35277777,35.164813,268.89749)">
      <path
         d="M 24.885275,11.062874 C 24.518201,14.785455 23.582517,18.51379 22.016326,22.131289 13.901792,40.88238 -7.8780354,49.505061 -26.629127,41.390529 -36.25659,37.224577 -43.205117,29.45265 -46.59805,20.340533 c -8.965285,3.764325 -19.385917,4.019122 -29.013379,-0.146831 -18.752531,-8.114531 -27.375211,-29.8943595 -19.260682,-48.645454 0.896818,-2.071459 1.967815,-4.010483 3.174127,-5.824269 0,0 18.883527,-34.758474 86.0986973,-40.553954 l 0.02447,-0.05327 c 0.01296,0.01586 0.024481,0.03167 0.037431,0.04751 0.020154,-0.0015 0.040308,-0.0044 0.060462,-0.0057 l -0.023043,0.0547 C 27.600192,-32.830814 26.693299,-0.54686028 24.885271,11.06281"
         style="opacity:1;fill:#ff7591;fill-opacity:1;fill-rule:nonzero;stroke:none;stroke-width:1.43951261"
         id="path22"
         inkscape:connector-curvature="0" />
    </g>
  </g>
</svg>
