<?xml version="1.0" encoding="UTF-8" standalone="no"?>
<!-- Created with Inkscape (http://www.inkscape.org/) -->

<svg
   xmlns:dc="http://purl.org/dc/elements/1.1/"
   xmlns:cc="http://creativecommons.org/ns#"
   xmlns:rdf="http://www.w3.org/1999/02/22-rdf-syntax-ns#"
   xmlns:svg="http://www.w3.org/2000/svg"
   xmlns="http://www.w3.org/2000/svg"
   xmlns:sodipodi="http://sodipodi.sourceforge.net/DTD/sodipodi-0.dtd"
   xmlns:inkscape="http://www.inkscape.org/namespaces/inkscape"
   width="570"
   height="160"
   viewBox="0 0 150.8125 42.333335"
   version="1.1"
   id="svg1808"
   inkscape:version="0.92.5 (2060ec1f9f, 2020-04-08)"
   sodipodi:docname="sophire_logo.svg">
  <defs
     id="defs1802" />
  <sodipodi:namedview
     id="base"
     pagecolor="#ffffff"
     bordercolor="#666666"
     borderopacity="1.0"
     inkscape:pageopacity="0.0"
     inkscape:pageshadow="2"
     inkscape:zoom="0.90509668"
     inkscape:cx="266.1771"
     inkscape:cy="258.12533"
     inkscape:document-units="mm"
     inkscape:current-layer="g20"
     showgrid="false"
     units="px"
     showguides="true"
     inkscape:guide-bbox="true"
     inkscape:snap-others="false"
     inkscape:snap-nodes="false"
     inkscape:window-width="1366"
     inkscape:window-height="732"
     inkscape:window-x="0"
     inkscape:window-y="0"
     inkscape:window-maximized="1">
    <sodipodi:guide
       position="98.889723,21.114294"
       orientation="0,1"
       id="guide2379"
       inkscape:locked="false" />
  </sodipodi:namedview>
  <metadata
     id="metadata1805">
    <rdf:RDF>
      <cc:Work
         rdf:about="">
        <dc:format>image/svg+xml</dc:format>
        <dc:type
           rdf:resource="http://purl.org/dc/dcmitype/StillImage" />
        <dc:title></dc:title>
      </cc:Work>
    </rdf:RDF>
  </metadata>
  <g
     inkscape:label="Layer 1"
     inkscape:groupmode="layer"
     id="layer1"
     transform="translate(0,-254.66665)">
    <g
       id="g20"
       transform="matrix(0.35277777,0,0,-0.35277777,35.164813,268.89749)">
      <path
         d="M 23.754005,8.2754439 C 23.407825,11.786126 22.525403,15.302235 21.048364,18.713815 13.395731,36.397545 -7.1443319,44.529401 -24.828061,36.876769 -33.907503,32.947954 -40.460502,25.618426 -43.6603,17.024994 c -8.454957,3.55005 -18.282419,3.790343 -27.361861,-0.138472 -17.685087,-7.6526316 -25.816938,-28.192695 -18.164312,-45.876426 0.845768,-1.953546 1.855801,-3.782195 2.993447,-5.492736 0,0 17.808627,-32.77993 81.1977309,-38.245515 l 0.023077,-0.05024 c 0.012223,0.01495 0.023088,0.02987 0.0353,0.0448 0.019007,-0.0014 0.038014,-0.0041 0.05702,-0.0054 l -0.021731,0.05158 C 26.314382,-33.119698 25.459111,-2.6734341 23.754001,8.275383"
         style="opacity:1;fill:#ff7591;fill-opacity:1;fill-rule:nonzero;stroke:none;stroke-width:1.35757184"
         id="path22"
         inkscape:connector-curvature="0" />
      <g
         id="g96"
         transform="matrix(1.3415515,0,0,1.3415515,-113.17269,-52.846025)">
        <path
           d="m 47.950362,-9.7832089 c 0.05198,0.104991 0.08955,0.219488 0.107846,0.342326 0.09747,0.635573 -0.337653,1.231425 -0.973623,1.3279779 -0.327039,0.050016 -0.64224,-0.041298 -0.885035,-0.2271489 -0.175976,0.250507 -0.449365,0.4320319 -0.775486,0.4816503 -0.636093,0.098785 -1.230507,-0.3380503 -1.327977,-0.9736223 -0.01129,-0.07139 -0.01508,-0.140577 -0.01269,-0.208077 0,0 -0.07824,-1.2432001 1.616958,-2.5228101 l -7.94e-4,-0.0018 c 9.17e-4,-3.97e-4 0.0013,5.2e-4 0.0022,1.23e-4 l 0.0018,-7.94e-4 -1.24e-4,0.0022 c 1.584401,0.564077 2.100813,1.44002 2.24686,1.7799781"
           style="fill:#ff7591;fill-opacity:1;fill-rule:nonzero;stroke:none"
           id="path98"
           inkscape:connector-curvature="0" />
        <g
           id="g100"
           transform="matrix(0.26053892,0.37297503,-0.37297503,0.26053892,28.920975,-4.3014234)">
          <path
             d="m 3.7011292,-18.256507 c 0.5385672,0.02105 1.0822068,0.123502 1.6153014,0.31814 2.764421,1.006349 4.189014,4.064392 3.182666,6.828813 -0.5172321,1.4191889 -1.5751078,2.4841269 -2.8557969,3.0485139 0.6174247,1.256772 0.7430722,2.7529713 0.22584,4.1721603 -1.0069492,2.76522 -4.0643915,4.18901399 -6.82881254,3.18266599 -0.30502486,-0.11188 -0.59281086,-0.248332 -0.86436186,-0.40635999 0,0 -5.156403,-2.41951 -6.561892,-12.0309322 l -0.0076,-0.0032 0.007,-0.006 c -3.96e-4,-0.0028 -7.92e-4,-0.0056 -0.002,-0.009 l 0.009,0.003 c 5.74825,-5.114568 10.3968819,-5.258459 12.0806319,-5.097811"
             style="fill:#ff5c7d;fill-opacity:1;fill-rule:nonzero;stroke:none"
             id="path102"
             inkscape:connector-curvature="0" />
          <path
             d="m 104.42725,-123.08053 c 0.42544,0.2406 0.82223,0.55085 1.17152,0.92908 1.81289,1.96485 1.6905,5.02642 -0.27287,6.83879 -1.00829,0.93082 -2.30549,1.35044 -3.57484,1.27405 -0.0244,1.27107 -0.54711,2.53161 -1.5554,3.46242 -1.963859,1.81336 -5.025429,1.69098 -6.837799,-0.27239 -0.20054,-0.21817 -0.37555,-0.44858 -0.52893,-0.68821 0,0 -3.15688,-4.10028 -0.29048,-12.44657 l -0.005,-0.006 c 0.003,-7e-4 0.004,-10e-4 0.007,-0.003 6.9e-4,-0.002 7e-4,-0.004 0.002,-0.006 l 0.006,0.006 c 6.77126,-1.73732 10.585269,0.082 11.878019,0.91237"
             style="fill:#db4f6b;fill-opacity:1;fill-rule:nonzero;stroke:none;stroke-width:1.10590744"
             id="path122"
             inkscape:connector-curvature="0" />
        </g>
      </g>
      <path
         d="m -38.560739,36.705817 c -0.123007,0.180115 -0.275882,0.344414 -0.456875,0.485868 -0.940988,0.731002 -2.2958,0.560551 -3.026799,-0.380435 -0.376046,-0.483234 -0.513107,-1.075415 -0.431397,-1.635967 -0.563186,-0.05973 -1.102651,-0.338262 -1.478695,-0.821495 -0.731,-0.94011 -0.560551,-2.295799 0.379558,-3.0268 0.104564,-0.08082 0.213502,-0.149363 0.325963,-0.20823 0,0 1.939964,-1.247621 5.538735,0.340901 l 0.0027,-0.0018 c 0,8.76e-4 8.57e-4,0.0018 8.57e-4,0.0035 8.57e-4,0 0.0018,8.77e-4 0.0035,8.77e-4 l -0.0027,0.0027 c 0.514906,3.073371 -0.436624,4.697916 -0.854841,5.240894"
         style="fill:#ff5c7d;fill-opacity:1;fill-rule:nonzero;stroke:none;stroke-width:0.87860638"
         id="path70"
         inkscape:connector-curvature="0" />
      <path
         d="m -28.012394,-72.345109 c -0.05149,0.28646 -0.146351,0.570243 -0.28991,0.840871 -0.742536,1.405441 -2.484802,1.941497 -3.889789,1.198193 -0.721766,-0.381495 -1.214106,-1.0267 -1.421351,-1.754089 -0.718262,0.237758 -1.528261,0.194181 -2.250027,-0.187319 -1.404988,-0.743299 -1.941497,-2.4848 -1.197734,-3.890559 0.08136,-0.154747 0.176296,-0.299358 0.280963,-0.431928 0,0 1.675742,-2.581825 6.925314,-2.623089 l 0.0023,-0.004 c 7.61e-4,4.5e-4 0.0017,0.002 0.0022,0.0034 0.002,1.63e-4 0.0033,-1.77e-4 0.0051,1.02e-4 l -0.0023,0.004 c 2.312979,3.455892 2.046186,5.95488 1.835121,6.844547"
         style="fill:#ff5c7d;fill-opacity:1;fill-rule:nonzero;stroke:none;stroke-width:0.90002781"
         id="path66"
         inkscape:connector-curvature="0" />
      <path
         d="m -13.041531,-78.492329 c 0.116715,-0.123423 0.253552,-0.232089 0.410514,-0.319291 0.812981,-0.448077 1.836583,-0.154276 2.284663,0.658702 0.230747,0.417224 0.265628,0.889449 0.134155,1.312039 0.4266136,0.112695 0.8089551,0.393074 1.0397014,0.810297 0.4494208,0.812979 0.1556197,1.836584 -0.657359,2.286003 -0.089884,0.04963 -0.1824514,0.08855 -0.2763604,0.120739 0,0 -1.644742,0.72578 -4.223204,-0.932377 l -0.0027,0.0013 v -0.0027 c -0.0014,0 -0.0014,-0.0014 -0.0027,-0.0014 l 0.0027,-0.0013 c -0.02549,-2.428208 0.902865,-3.564502 1.290574,-3.932087"
         style="fill:#ff5c7d;fill-opacity:1;fill-rule:nonzero;stroke:none;stroke-width:1.34155142"
         id="path74"
         inkscape:connector-curvature="0" />
      <path
         d="m 6.3955781,-74.339951 c 0.05394,0.190223 0.080008,0.391358 0.072888,0.598836 -0.036975,1.078335 -0.9401256,1.923391 -2.0184601,1.886422 -0.5538108,-0.01877 -1.04474,-0.26684 -1.3878158,-0.648475 -0.367826,0.358046 -0.8755466,0.57203 -1.4282634,0.553179 -1.07774287,-0.03646 -1.9227995,-0.939615 -1.8864216,-2.018457 0.00438,-0.118433 0.0194342,-0.234887 0.0435586,-0.347614 0,0 0.25684762,-2.072107 3.4469286,-3.655361 l 8.095e-4,-0.0034 c 5.903e-4,5.06e-4 0.00177,0.0016 0.00233,0.002 0.00102,-0.0012 0.0021,-0.0013 0.00322,-0.0013 l -3.034e-4,0.0028 c 2.4367926,1.422133 3.0157597,3.025615 3.151527,3.631342"
         style="fill:#ff5c7d;fill-opacity:1;fill-rule:nonzero;stroke:none;stroke-width:0.77827525"
         id="path118-3"
         inkscape:connector-curvature="0"
         inkscape:transform-center-x="-1.2457856"
         inkscape:transform-center-y="0.18236829" />
      <path
         d="m 11.640682,-61.386703 c 0.08576,0.08098 0.161298,0.175943 0.221926,0.28488 0.311572,0.564269 0.108112,1.275189 -0.45615,1.58676 -0.289585,0.160451 -0.617466,0.184917 -0.910969,0.09387 -0.07801,0.296289 -0.272505,0.561928 -0.562088,0.722378 -0.5642684,0.312504 -1.2751883,0.109033 -1.5876917,-0.455219 -0.034509,-0.06239 -0.061604,-0.126646 -0.083987,-0.191835 0,0 -0.5048515,-1.14167 0.6451343,-2.932977 l -9.038e-4,-0.0019 0.00192,-2e-6 c 0,-9.93e-4 9.947e-4,-9.93e-4 9.947e-4,-0.0019 l 9.049e-4,0.0019 c 1.6860676,-0.01895 2.4755806,0.625002 2.7310306,0.894017"
         style="fill:#ff5c7d;fill-opacity:1;fill-rule:nonzero;stroke:none;stroke-width:0.93153626"
         id="path74-6"
         inkscape:connector-curvature="0"
         inkscape:transform-center-x="-1.070232" />
      <text
         xml:space="preserve"
         style="font-style:normal;font-weight:normal;font-size:32.4407959px;line-height:1.25;font-family:sans-serif;letter-spacing:0px;word-spacing:0px;fill:#2d2d2d;fill-opacity:1;stroke:none;stroke-width:0.81101984"
         x="33.715778"
         y="44.937286"
         id="text2536"
         transform="scale(1,-1)"><tspan
           sodipodi:role="line"
           id="tspan2534"
           x="33.715778"
           y="44.937286"
           style="font-style:normal;font-variant:normal;font-weight:normal;font-stretch:normal;font-size:113.54278564px;font-family:'Friendly Schoolmates';-inkscape-font-specification:'Friendly Schoolmates';fill:#2d2d2d;fill-opacity:1;stroke-width:0.81101984">Sophire</tspan></text>
    </g>
  </g>
</svg>
